# This file uses centimeters as units for non-parametric coordinates.

mtllib Crate.mtl
g default
v -0.926756 -0.926746 0.823940
v -0.823945 -0.969328 0.823940
v -0.823945 -0.926746 0.926746
v -0.823945 -0.823944 0.969330
v -0.926756 -0.823944 0.926746
v -0.969329 -0.823944 0.823940
v 0.926745 -0.926746 0.823940
v 0.969318 -0.823944 0.823940
v 0.926745 -0.823944 0.926746
v 0.823935 -0.823944 0.969330
v 0.823935 -0.926746 0.926746
v 0.823935 -0.969328 0.823940
v -0.926756 0.926746 0.823940
v -0.969329 0.823944 0.823940
v -0.926756 0.823944 0.926746
v -0.823945 0.823944 0.969330
v -0.823945 0.926746 0.926746
v -0.823945 0.969328 0.823940
v 0.926745 0.926746 0.823940
v 0.823935 0.969328 0.823940
v 0.823935 0.926746 0.926746
v 0.823935 0.823944 0.969330
v 0.926745 0.823944 0.926746
v 0.969318 0.823944 0.823940
v -0.926756 0.823944 -0.926764
v -0.969329 0.823944 -0.823954
v -0.926756 0.926746 -0.823954
v -0.823945 0.969328 -0.823954
v -0.823945 0.926746 -0.926764
v -0.823945 0.823944 -0.969345
v 0.926745 0.823944 -0.926764
v 0.823935 0.823944 -0.969345
v 0.823935 0.926746 -0.926764
v 0.823935 0.969328 -0.823954
v 0.926745 0.926746 -0.823954
v 0.969318 0.823944 -0.823954
v -0.926756 -0.926746 -0.823954
v -0.969329 -0.823944 -0.823954
v -0.926756 -0.823944 -0.926764
v -0.823945 -0.823944 -0.969345
v -0.823945 -0.926746 -0.926764
v -0.823945 -0.969328 -0.823954
v 0.926745 -0.926746 -0.823954
v 0.823935 -0.969328 -0.823954
v 0.823935 -0.926746 -0.926764
v 0.823935 -0.823944 -0.969345
v 0.926745 -0.823944 -0.926764
v 0.969318 -0.823944 -0.823954
v -0.907853 -0.907852 0.907848
v 0.907843 -0.907852 0.907848
v -0.907853 0.907852 0.907848
v 0.907843 0.907852 0.907848
v -0.907853 0.907852 -0.907862
v 0.907843 0.907852 -0.907862
v -0.907853 -0.907852 -0.907862
v 0.907843 -0.907852 -0.907862
v 0.823935 -0.823944 0.845407
v -0.823945 -0.823944 0.845407
v 0.823935 0.823944 0.845407
v -0.823945 0.823944 0.845407
v 0.823935 0.845413 0.823940
v -0.823945 0.845413 0.823940
v 0.823935 0.845413 -0.823954
v -0.823945 0.845413 -0.823954
v 0.823935 0.823944 -0.845423
v -0.823945 0.823944 -0.845423
v 0.823935 -0.823944 -0.845423
v -0.823945 -0.823944 -0.845423
v 0.823935 -0.845413 -0.823954
v -0.823945 -0.845413 -0.823954
v 0.823935 -0.845413 0.823940
v -0.823945 -0.845413 0.823940
v 0.845407 -0.823944 -0.823954
v 0.845407 -0.823944 0.823940
v 0.845407 0.823944 -0.823954
v 0.845407 0.823944 0.823940
v -0.845411 -0.823944 0.823940
v -0.845411 -0.823944 -0.823954
v -0.845411 0.823944 0.823940
v -0.845411 0.823944 -0.823954
v 0.769008 0.845413 0.769007
v -0.769017 0.845413 0.769007
v 0.769008 0.845413 -0.769022
v -0.769017 0.845413 -0.769022
v 0.769008 -0.845413 -0.769022
v -0.769017 -0.845413 -0.769022
v 0.769008 -0.845413 0.769007
v -0.769017 -0.845413 0.769007
v 0.769008 0.968161 0.769007
v -0.769017 0.968161 0.769007
v 0.769008 0.968161 -0.769022
v -0.769017 0.968161 -0.769022
v 0.769008 -0.968161 -0.769022
v -0.769017 -0.968161 -0.769022
v 0.769008 -0.968161 0.769007
v -0.769017 -0.968161 0.769007
vt 0.393748 0.981252
vt 0.393748 0.018748
vt 0.606252 0.981252
vt 0.643748 0.018748
vt 0.393748 0.231252
vt 0.606252 0.231252
vt 0.643748 0.231252
vt 0.143748 0.018748
vt 0.393748 0.481252
vt 0.606252 0.481252
vt 0.856252 0.231252
vt 0.856252 0.018748
vt 0.606252 0.768748
vt 0.393748 0.731252
vt 0.606252 0.731252
vt 0.606252 0.018748
vt 0.393748 0.268748
vt 0.606252 0.268748
vt 0.393748 0.518748
vt 0.606252 0.518748
vt 0.393748 0.768748
vt 0.356252 0.018748
vt 0.356252 0.231252
vt 0.143748 0.231252
vt 0.375000 0.987930
vt 0.362930 0.000000
vt 0.387070 0.000000
vt 0.387070 1.000000
vt 0.375000 0.018312
vt 0.637070 0.000000
vt 0.625000 0.987930
vt 0.625000 0.018312
vt 0.612930 1.000000
vt 0.612930 0.000000
vt 0.362930 0.250000
vt 0.375000 0.262070
vt 0.375000 0.231688
vt 0.393312 0.250000
vt 0.625000 0.262070
vt 0.637070 0.250000
vt 0.606687 0.250000
vt 0.625000 0.231688
vt 0.125000 0.237930
vt 0.375000 0.512070
vt 0.375000 0.487930
vt 0.137070 0.250000
vt 0.393312 0.500000
vt 0.625000 0.512070
vt 0.875000 0.237930
vt 0.606687 0.500000
vt 0.862930 0.250000
vt 0.625000 0.487930
vt 0.137070 0.000000
vt 0.375000 0.762070
vt 0.375000 0.737930
vt 0.125000 0.012070
vt 0.393312 0.750000
vt 0.625000 0.762070
vt 0.862930 0.000000
vt 0.606687 0.750000
vt 0.875000 0.012070
vt 0.625000 0.737930
vt 0.375000 1.000000
vt 0.375000 0.000000
vt 0.625000 0.000000
vt 0.625000 1.000000
vt 0.375000 0.250000
vt 0.625000 0.250000
vt 0.125000 0.250000
vt 0.375000 0.500000
vt 0.625000 0.500000
vt 0.875000 0.250000
vt 0.125000 0.000000
vt 0.375000 0.750000
vt 0.625000 0.750000
vt 0.875000 0.000000
vt 0.393748 0.018748
vt 0.606252 0.018748
vt 0.606252 0.231252
vt 0.393748 0.231252
vt 0.393748 0.268748
vt 0.606252 0.268748
vt 0.606252 0.481252
vt 0.393748 0.481252
vt 0.393748 0.518748
vt 0.606252 0.518748
vt 0.606252 0.731252
vt 0.393748 0.731252
vt 0.393748 0.768748
vt 0.606252 0.768748
vt 0.606252 0.981252
vt 0.393748 0.981252
vt 0.643748 0.018748
vt 0.856252 0.018748
vt 0.856252 0.231252
vt 0.643748 0.231252
vt 0.143748 0.018748
vt 0.356252 0.018748
vt 0.356252 0.231252
vt 0.143748 0.231252
vt 0.393748 0.268748
vt 0.606252 0.268748
vt 0.606252 0.481252
vt 0.393748 0.481252
vt 0.393748 0.768748
vt 0.606252 0.768748
vt 0.606252 0.981252
vt 0.393748 0.981252
vt 0.393748 0.268748
vt 0.606252 0.268748
vt 0.606252 0.481252
vt 0.393748 0.481252
vt 0.393748 0.768748
vt 0.606252 0.768748
vt 0.606252 0.981252
vt 0.393748 0.981252
vn -0.201916 -0.958364 0.201915
vn -0.380912 -0.924485 0.015247
vn -0.380913 -0.924485 -0.015247
vn -0.201912 -0.958365 -0.201911
vn -0.924503 -0.380870 0.015248
vn -0.958377 -0.201884 0.201883
vn -0.958378 -0.201881 -0.201879
vn -0.924503 -0.380870 -0.015248
vn -0.201924 -0.201924 0.958360
vn -0.015249 -0.380949 0.924470
vn 0.015249 -0.380949 0.924470
vn 0.201924 -0.201924 0.958360
vn -0.015247 -0.924479 0.380928
vn 0.201916 -0.958364 0.201915
vn 0.015247 -0.924479 0.380928
vn -0.924508 -0.015248 0.380858
vn -0.924508 0.015248 0.380858
vn -0.958377 0.201883 0.201882
vn -0.380922 -0.015248 0.924482
vn -0.201923 0.201923 0.958360
vn -0.380922 0.015248 0.924482
vn 0.958377 -0.201884 0.201883
vn 0.924503 -0.380870 0.015248
vn 0.924503 -0.380870 -0.015248
vn 0.958378 -0.201881 -0.201879
vn 0.380913 -0.924485 0.015247
vn 0.201912 -0.958365 -0.201911
vn 0.380913 -0.924485 -0.015247
vn 0.380922 -0.015248 0.924482
vn 0.380922 0.015248 0.924482
vn 0.201923 0.201923 0.958360
vn 0.924508 -0.015248 0.380858
vn 0.958377 0.201883 0.201882
vn 0.924508 0.015248 0.380858
vn -0.924503 0.380869 0.015248
vn -0.924503 0.380869 -0.015248
vn -0.958379 0.201880 -0.201879
vn -0.380909 0.924487 0.015247
vn -0.201914 0.958364 0.201913
vn -0.201911 0.958366 -0.201909
vn -0.380910 0.924487 -0.015247
vn -0.015247 0.924480 0.380925
vn 0.015247 0.924480 0.380925
vn 0.201914 0.958364 0.201913
vn -0.015249 0.380947 0.924471
vn 0.015249 0.380947 0.924471
vn 0.380909 0.924487 0.015247
vn 0.380910 0.924487 -0.015247
vn 0.201911 0.958366 -0.201909
vn 0.924503 0.380869 0.015248
vn 0.958379 0.201880 -0.201879
vn 0.924503 0.380869 -0.015248
vn -0.924513 0.015248 -0.380846
vn -0.924513 -0.015248 -0.380846
vn -0.380908 0.015249 -0.924487
vn -0.201916 0.201915 -0.958363
vn -0.201916 -0.201916 -0.958363
vn -0.380908 -0.015249 -0.924487
vn -0.015250 0.380934 -0.924477
vn 0.015250 0.380934 -0.924477
vn 0.201916 0.201915 -0.958363
vn -0.015247 0.924485 -0.380913
vn 0.015247 0.924485 -0.380913
vn 0.380908 0.015249 -0.924487
vn 0.380908 -0.015249 -0.924487
vn 0.201916 -0.201916 -0.958363
vn 0.924513 0.015248 -0.380847
vn 0.924513 -0.015248 -0.380846
vn -0.015247 -0.924484 -0.380916
vn 0.015247 -0.924484 -0.380916
vn -0.015250 -0.380935 -0.924476
vn 0.015250 -0.380935 -0.924476
vn 0.000000 0.000000 1.000000
vn 0.000000 0.000000 1.000000
vn 0.000000 0.000000 1.000000
vn 0.000000 0.000000 1.000000
vn 0.000000 1.000000 0.000000
vn 0.000000 1.000000 0.000000
vn 0.000000 1.000000 0.000000
vn 0.000000 1.000000 0.000000
vn 0.000000 0.000000 -1.000000
vn 0.000000 0.000000 -1.000000
vn 0.000000 0.000000 -1.000000
vn 0.000000 0.000000 -1.000000
vn 0.000000 -1.000000 0.000000
vn 0.000000 -1.000000 0.000000
vn 0.000000 -1.000000 0.000000
vn 0.000000 -1.000000 0.000000
vn 1.000000 0.000000 0.000000
vn 1.000000 0.000000 0.000000
vn 1.000000 0.000000 0.000000
vn 1.000000 0.000000 0.000000
vn -1.000000 0.000000 0.000000
vn -1.000000 0.000000 0.000000
vn -1.000000 0.000000 0.000000
vn -1.000000 0.000000 0.000000
vn -0.887919 -0.325275 0.325263
vn -0.325263 -0.887918 0.325278
vn -0.325279 -0.325306 0.887902
vn 0.325263 -0.887918 0.325278
vn 0.887919 -0.325274 0.325263
vn 0.325279 -0.325306 0.887902
vn -0.325263 0.887918 0.325279
vn -0.887919 0.325274 0.325263
vn -0.325279 0.325306 0.887902
vn 0.887919 0.325274 0.325263
vn 0.325264 0.887917 0.325279
vn 0.325279 0.325305 0.887902
vn -0.325288 0.325314 -0.887896
vn -0.887919 0.325281 -0.325257
vn -0.325269 0.887918 -0.325273
vn 0.887919 0.325281 -0.325258
vn 0.325288 0.325313 -0.887896
vn 0.325269 0.887918 -0.325273
vn -0.325269 -0.887918 -0.325272
vn -0.887919 -0.325281 -0.325257
vn -0.325287 -0.325314 -0.887896
vn 0.887919 -0.325281 -0.325257
vn 0.325269 -0.887918 -0.325272
vn 0.325287 -0.325314 -0.887896
vn 0.000000 1.000000 0.000000
vn 0.000000 1.000000 0.000000
vn 0.000000 1.000000 0.000000
vn 0.000000 1.000000 0.000000
vn -1.000000 0.000000 0.000000
vn -1.000000 0.000000 0.000000
vn -1.000000 0.000000 0.000000
vn -1.000000 0.000000 0.000000
vn 0.000000 -1.000000 0.000000
vn 0.000000 -1.000000 0.000000
vn 0.000000 -1.000000 0.000000
vn 0.000000 -1.000000 0.000000
vn 1.000000 0.000000 0.000000
vn 1.000000 0.000000 0.000000
vn 1.000000 0.000000 0.000000
vn 1.000000 0.000000 0.000000
vn 0.000000 0.000000 -1.000000
vn 0.000000 0.000000 -1.000000
vn 0.000000 0.000000 -1.000000
vn 0.000000 0.000000 -1.000000
vn -1.000000 0.000000 0.000000
vn -1.000000 0.000000 0.000000
vn -1.000000 0.000000 0.000000
vn -1.000000 0.000000 0.000000
vn 0.000000 0.000000 1.000000
vn 0.000000 0.000000 1.000000
vn 0.000000 0.000000 1.000000
vn 0.000000 0.000000 1.000000
vn 1.000000 0.000000 0.000000
vn 1.000000 0.000000 0.000000
vn 1.000000 0.000000 0.000000
vn 1.000000 0.000000 0.000000
vn 0.000000 -1.000000 0.000000
vn 0.000000 -1.000000 0.000000
vn 0.000000 -1.000000 0.000000
vn 0.000000 -1.000000 0.000000
vn -1.000000 0.000000 0.000000
vn -1.000000 0.000000 0.000000
vn -1.000000 0.000000 0.000000
vn -1.000000 0.000000 0.000000
vn 0.000000 1.000000 0.000000
vn 0.000000 1.000000 0.000000
vn 0.000000 1.000000 0.000000
vn 0.000000 1.000000 0.000000
vn 1.000000 0.000000 0.000000
vn 1.000000 0.000000 0.000000
vn 1.000000 0.000000 0.000000
vn 1.000000 0.000000 0.000000
vn 0.000000 0.000000 1.000000
vn 0.000000 0.000000 1.000000
vn 0.000000 0.000000 1.000000
vn 0.000000 0.000000 1.000000
vn -1.000000 0.000000 0.000000
vn -1.000000 0.000000 0.000000
vn -1.000000 0.000000 0.000000
vn -1.000000 0.000000 0.000000
vn 0.000000 0.000000 -1.000000
vn 0.000000 0.000000 -1.000000
vn 0.000000 0.000000 -1.000000
vn 0.000000 0.000000 -1.000000
vn 1.000000 0.000000 0.000000
vn 1.000000 0.000000 0.000000
vn 1.000000 0.000000 0.000000
vn 1.000000 0.000000 0.000000
vn 0.000000 1.000000 0.000000
vn 0.000000 1.000000 0.000000
vn 0.000000 1.000000 0.000000
vn 0.000000 1.000000 0.000000
vn 0.000000 0.000000 1.000000
vn 0.000000 0.000000 1.000000
vn 0.000000 0.000000 1.000000
vn 0.000000 0.000000 1.000000
vn 0.000000 -1.000000 0.000000
vn 0.000000 -1.000000 0.000000
vn 0.000000 -1.000000 0.000000
vn 0.000000 -1.000000 0.000000
vn 0.000000 0.000000 -1.000000
vn 0.000000 0.000000 -1.000000
vn 0.000000 0.000000 -1.000000
vn 0.000000 0.000000 -1.000000
vn 0.000000 1.000000 0.000000
vn 0.000000 1.000000 0.000000
vn 0.000000 1.000000 0.000000
vn 0.000000 1.000000 0.000000
vn 0.000000 0.000000 -1.000000
vn 0.000000 0.000000 -1.000000
vn 0.000000 0.000000 -1.000000
vn 0.000000 0.000000 -1.000000
vn 0.000000 -1.000000 0.000000
vn 0.000000 -1.000000 0.000000
vn 0.000000 -1.000000 0.000000
vn 0.000000 -1.000000 0.000000
vn 0.000000 0.000000 1.000000
vn 0.000000 0.000000 1.000000
vn 0.000000 0.000000 1.000000
vn 0.000000 0.000000 1.000000
vn 0.000000 1.000000 -0.000001
vn 0.000000 1.000000 -0.000001
vn 0.000000 1.000000 -0.000001
vn 0.000000 1.000000 -0.000001
vn 0.000000 1.000000 0.000000
vn 0.000000 1.000000 0.000000
vn 0.000000 1.000000 0.000000
vn 0.000000 1.000000 0.000000
vn 0.000000 -1.000000 0.000001
vn 0.000000 -1.000000 0.000001
vn 0.000000 -1.000000 0.000001
vn 0.000000 -1.000000 0.000001
vn 0.000000 -1.000000 -0.000000
vn 0.000000 -1.000000 -0.000000
vn 0.000000 -1.000000 -0.000000
vn 0.000000 -1.000000 -0.000000
vn 0.000000 0.000000 1.000000
vn 0.000000 0.000000 1.000000
vn 0.000000 0.000000 1.000000
vn 0.000000 0.000000 1.000000
vn 1.000000 0.000000 0.000000
vn 1.000000 0.000000 0.000000
vn 1.000000 0.000000 0.000000
vn 1.000000 0.000000 0.000000
vn 0.000000 0.000000 -1.000000
vn 0.000000 0.000000 -1.000000
vn 0.000000 0.000000 -1.000000
vn 0.000000 0.000000 -1.000000
vn -1.000000 0.000000 0.000000
vn -1.000000 0.000000 0.000000
vn -1.000000 0.000000 0.000000
vn -1.000000 0.000000 0.000000
vn 0.000000 0.000000 -1.000000
vn 0.000000 0.000000 -1.000000
vn 0.000000 0.000000 -1.000000
vn 0.000000 0.000000 -1.000000
vn 1.000000 0.000000 0.000000
vn 1.000000 0.000000 0.000000
vn 1.000000 0.000000 0.000000
vn 1.000000 0.000000 0.000000
vn 0.000000 0.000000 1.000000
vn 0.000000 0.000000 1.000000
vn 0.000000 0.000000 1.000000
vn 0.000000 0.000000 1.000000
vn -1.000000 0.000000 0.000000
vn -1.000000 0.000000 0.000000
vn -1.000000 0.000000 0.000000
vn -1.000000 0.000000 0.000000
s 1
g pCube39
usemtl initialShadingGroup
f 2/1/1 1/25/2 37/54/3 42/21/4
s 2
f 1/26/5 6/22/6 38/8/7 37/53/8
s 3
f 4/2/9 3/27/10 11/34/11 10/16/12
s 1
f 3/28/13 2/1/1 12/3/14 11/33/15
s 2
f 6/22/6 5/29/16 15/37/17 14/23/18
s 3
f 5/29/19 4/2/9 16/5/20 15/37/21
s 4
f 8/4/22 7/30/23 43/59/24 48/12/25
s 1
f 7/31/26 12/3/14 44/13/27 43/58/28
s 3
f 10/16/12 9/32/29 23/42/30 22/6/31
s 4
f 9/32/32 8/4/22 24/7/33 23/42/34
s 2
f 14/23/18 13/35/35 27/46/36 26/24/37
s 5
f 13/36/38 18/17/39 28/9/40 27/45/41
f 18/17/39 17/38/42 21/41/43 20/18/44
s 3
f 17/38/45 16/5/20 22/6/31 21/41/46
s 5
f 20/18/44 19/39/47 35/52/48 34/10/49
s 4
f 19/40/50 24/7/33 36/11/51 35/51/52
s 2
f 26/24/37 25/43/53 39/56/54 38/8/7
s 6
f 25/44/55 30/19/56 40/14/57 39/55/58
f 30/19/56 29/47/59 33/50/60 32/20/61
s 5
f 29/47/62 28/9/40 34/10/49 33/50/63
s 6
f 32/20/61 31/48/64 47/62/65 46/15/66
s 4
f 31/49/67 36/11/51 48/12/25 47/61/68
s 1
f 42/21/4 41/57/69 45/60/70 44/13/27
s 6
f 41/57/71 40/14/57 46/15/66 45/60/72
s off
f 58/77/73 57/78/74 59/79/75 60/80/76
f 90/109/77 89/110/78 91/111/79 92/112/80
f 66/85/81 65/86/82 67/87/83 68/88/84
f 94/113/85 93/114/86 95/115/87 96/116/88
f 74/93/89 73/94/90 75/95/91 76/96/92
f 78/97/93 77/98/94 79/99/95 80/100/96
s 2
f 5/29/16 6/22/6 1/26/5 49/64/97
s 1
f 1/25/2 2/1/1 3/28/13 49/63/98
s 3
f 3/27/10 4/2/9 5/29/19 49/64/99
s 1
f 11/33/15 12/3/14 7/31/26 50/66/100
s 4
f 7/30/23 8/4/22 9/32/32 50/65/101
s 3
f 9/32/29 10/16/12 11/34/11 50/65/102
s 5
f 17/38/42 18/17/39 13/36/38 51/67/103
s 2
f 13/35/35 14/23/18 15/37/17 51/67/104
s 3
f 15/37/21 16/5/20 17/38/45 51/67/105
s 4
f 23/42/34 24/7/33 19/40/50 52/68/106
s 5
f 19/39/47 20/18/44 21/41/43 52/68/107
s 3
f 21/41/46 22/6/31 23/42/30 52/68/108
s 6
f 29/47/59 30/19/56 25/44/55 53/70/109
s 2
f 25/43/53 26/24/37 27/46/36 53/69/110
s 5
f 27/45/41 28/9/40 29/47/62 53/70/111
s 4
f 35/51/52 36/11/51 31/49/67 54/72/112
s 6
f 31/48/64 32/20/61 33/50/60 54/71/113
s 5
f 33/50/63 34/10/49 35/52/48 54/71/114
s 1
f 41/57/69 42/21/4 37/54/3 55/74/115
s 2
f 37/53/8 38/8/7 39/56/54 55/73/116
s 6
f 39/55/58 40/14/57 41/57/71 55/74/117
s 4
f 47/61/68 48/12/25 43/59/24 56/76/118
s 1
f 43/58/28 44/13/27 45/60/70 56/75/119
s 6
f 45/60/72 46/15/66 47/62/65 56/75/120
s off
f 4/2/121 10/16/122 57/78/123 58/77/124
f 10/16/125 22/6/126 59/79/127 57/78/128
f 22/6/129 16/5/130 60/80/131 59/79/132
f 16/5/133 4/2/134 58/77/135 60/80/136
f 18/17/137 20/18/138 61/82/139 62/81/140
f 20/18/141 34/10/142 63/83/143 61/82/144
f 34/10/145 28/9/146 64/84/147 63/83/148
f 28/9/149 18/17/150 62/81/151 64/84/152
f 30/19/153 32/20/154 65/86/155 66/85/156
f 32/20/157 46/15/158 67/87/159 65/86/160
f 46/15/161 40/14/162 68/88/163 67/87/164
f 40/14/165 30/19/166 66/85/167 68/88/168
f 42/21/169 44/13/170 69/90/171 70/89/172
f 44/13/173 12/3/174 71/91/175 69/90/176
f 12/3/177 2/1/178 72/92/179 71/91/180
f 2/1/181 42/21/182 70/89/183 72/92/184
f 8/4/185 48/12/186 73/94/187 74/93/188
f 48/12/189 36/11/190 75/95/191 73/94/192
f 36/11/193 24/7/194 76/96/195 75/95/196
f 24/7/197 8/4/198 74/93/199 76/96/200
f 38/8/201 6/22/202 77/98/203 78/97/204
f 6/22/205 14/23/206 79/99/207 77/98/208
f 14/23/209 26/24/210 80/100/211 79/99/212
f 26/24/213 38/8/214 78/97/215 80/100/216
s 7
f 62/81/217 61/82/218 81/102/219 82/101/220
f 61/82/218 63/83/221 83/103/222 81/102/219
f 63/83/221 64/84/223 84/104/224 83/103/222
f 64/84/223 62/81/217 82/101/220 84/104/224
s 8
f 70/89/225 69/90/226 85/106/227 86/105/228
f 69/90/226 71/91/229 87/107/230 85/106/227
f 71/91/229 72/92/231 88/108/232 87/107/230
f 72/92/231 70/89/225 86/105/228 88/108/232
s off
f 82/101/233 81/102/234 89/110/235 90/109/236
f 81/102/237 83/103/238 91/111/239 89/110/240
f 83/103/241 84/104/242 92/112/243 91/111/244
f 84/104/245 82/101/246 90/109/247 92/112/248
f 86/105/249 85/106/250 93/114/251 94/113/252
f 85/106/253 87/107/254 95/115/255 93/114/256
f 87/107/257 88/108/258 96/116/259 95/115/260
f 88/108/261 86/105/262 94/113/263 96/116/264
