# This file uses centimeters as units for non-parametric coordinates.

mtllib Decor2.mtl
g default
v -0.500000 -0.040711 0.500000
v 0.000000 -0.040711 0.500000
v 0.500000 -0.040711 0.500000
v 0.083333 1.118925 0.416667
v -0.500000 2.278561 0.000000
v 0.000000 2.278562 0.500000
v 0.500000 2.278562 0.500000
v -0.250000 3.438197 -0.250000
v 0.000000 3.438198 0.500000
v 0.500000 3.438197 0.000000
v -0.416667 4.984379 -0.166667
v 0.333333 4.597834 0.333333
v 0.000000 5.757470 0.500000
v -0.500000 6.917107 0.500000
v 0.250000 6.917107 0.500000
v -0.416667 8.559924 -0.125000
v 0.000000 8.076743 0.500000
v 0.500000 8.076743 0.500000
v 0.000000 9.236380 0.500000
v 0.500000 9.236380 0.500000
v -0.500000 10.396015 0.500000
v 0.375000 10.396015 0.250000
v -0.250000 11.555653 0.375000
v 0.500000 11.555653 0.500000
v -0.333333 12.715288 0.333333
v 0.500000 12.715288 0.250000
v -0.500000 13.874924 0.500000
v 0.000000 13.874924 0.500000
v 0.500000 13.874924 0.500000
v -0.500000 13.874924 0.000000
v 0.000000 13.874924 0.000000
v 0.500000 13.874924 0.000000
v -0.500000 13.874924 -0.500000
v 0.000000 13.874924 -0.500000
v 0.500000 13.874924 -0.500000
v -0.125000 12.715287 -0.500000
v -0.250000 11.555651 -0.500000
v 0.500000 11.555651 -0.500000
v -0.333333 10.299378 -0.250000
v 0.500000 8.463288 -0.250000
v 0.125000 6.917106 -0.375000
v 0.000000 5.757469 -0.500000
v 0.500000 5.757469 -0.500000
v 0.201685 4.597833 -0.232182
v 0.375000 1.408834 -0.250000
v -0.500000 1.118924 -0.500000
v -0.500000 -0.040711 -0.500000
v 0.000000 -0.040711 -0.500000
v 0.500000 -0.040711 -0.500000
v -0.500000 -0.040711 0.000000
v 0.000000 -0.040711 0.000000
v 0.500000 -0.040711 0.000000
v 0.500000 2.278562 0.000000
v 0.500000 5.757471 0.000000
v 0.500000 11.555653 0.000000
v -0.500000 6.917107 0.000000
vt 0.375000 0.000000
vt 0.500000 0.000000
vt 0.625000 0.000000
vt 0.500000 0.020833
vt 0.250000 0.041667
vt 0.500000 0.041667
vt 0.625000 0.041667
vt 0.250000 0.062500
vt 0.500000 0.062500
vt 0.750000 0.062500
vt 0.225000 0.091667
vt 0.625000 0.083333
vt 0.500000 0.104167
vt 0.375000 0.125000
vt 0.562500 0.125000
vt 0.218750 0.156250
vt 0.500000 0.145833
vt 0.625000 0.145833
vt 0.500000 0.166667
vt 0.625000 0.166667
vt 0.375000 0.187500
vt 0.656250 0.187500
vt 0.406250 0.208333
vt 0.625000 0.208333
vt 0.375000 0.229167
vt 0.687500 0.229167
vt 0.375000 0.250000
vt 0.500000 0.250000
vt 0.625000 0.250000
vt 0.375000 0.375000
vt 0.500000 0.375000
vt 0.625000 0.375000
vt 0.375000 0.500000
vt 0.500000 0.500000
vt 0.625000 0.500000
vt 0.468750 0.520833
vt 0.437500 0.541667
vt 0.625000 0.541667
vt 0.458333 0.565972
vt 0.416667 0.597222
vt 0.625000 0.593750
vt 0.500000 0.625000
vt 0.416667 0.659722
vt 0.500000 0.645833
vt 0.625000 0.645833
vt 0.625000 0.666667
vt 0.437500 0.687500
vt 0.625000 0.687500
vt 0.375000 0.708333
vt 0.562500 0.718750
vt 0.375000 0.729166
vt 0.375000 0.750000
vt 0.500000 0.750000
vt 0.625000 0.750000
vt 0.375000 0.875000
vt 0.500000 0.875000
vt 0.625000 0.875000
vt 0.375000 1.000000
vt 0.500000 1.000000
vt 0.625000 1.000000
vt 0.875000 0.000000
vt 0.750000 0.000000
vt 0.812500 0.026042
vt 0.750000 0.041667
vt 0.875000 0.083333
vt 0.875000 0.104167
vt 0.750000 0.104167
vt 0.812500 0.125000
vt 0.812500 0.152778
vt 0.875000 0.187500
vt 0.875000 0.208333
vt 0.750000 0.208333
vt 0.875000 0.229167
vt 0.875000 0.250000
vt 0.750000 0.250000
vt 0.125000 0.000000
vt 0.250000 0.000000
vt 0.125000 0.020833
vt 0.125000 0.125000
vt 0.250000 0.125000
vt 0.187500 0.187500
vt 0.125000 0.208333
vt 0.125000 0.229167
vt 0.125000 0.250000
vt 0.250000 0.250000
vn 0.000000 0.071677 0.997428
vn 0.000000 0.071677 0.997428
vn 0.000000 0.071677 0.997428
vn 0.000000 0.071677 0.997428
vn -0.491168 -0.097499 0.865591
vn -0.414237 0.107706 0.903774
vn -0.822634 0.088017 0.561717
vn 0.335688 0.125900 0.933522
vn -0.462192 0.130874 0.877069
vn -0.805139 0.100701 0.584475
vn 0.552386 0.080056 0.829736
vn -0.136361 -0.065677 0.988480
vn -0.733215 -0.055487 0.677730
vn 0.693782 0.021387 0.719868
vn 0.797733 -0.021411 0.602631
vn -0.302899 0.130601 0.944032
vn -0.330842 0.098764 0.938504
vn -0.510012 0.034314 0.859483
vn 0.000000 0.000000 1.000000
vn -0.218060 -0.036189 0.975264
vn 0.000000 0.068426 0.997656
vn -0.074876 -0.056253 0.995605
vn -0.059390 -0.051645 0.996898
vn -0.005709 0.046941 0.998881
vn -0.069129 0.025951 0.997270
vn 0.014282 -0.018474 0.999727
vn 0.010719 -0.014374 0.999839
vn 0.048670 -0.176275 0.983137
vn 0.000000 -0.142262 0.989829
vn 0.061301 -0.185019 0.980821
vn 0.000000 1.000000 0.000000
vn 0.000000 1.000000 0.000000
vn 0.000000 1.000000 0.000000
vn 0.000000 1.000000 0.000000
vn 0.000000 1.000000 0.000000
vn 0.000000 1.000000 0.000000
vn 0.000000 1.000000 0.000000
vn 0.000000 1.000000 0.000000
vn 0.000000 1.000000 0.000000
vn 0.000000 0.000000 -1.000000
vn 0.000000 0.000000 -1.000000
vn 0.000000 0.000000 -1.000000
vn 0.000000 0.000000 -1.000000
vn 0.000000 0.000000 -1.000000
vn 0.000000 -0.099029 -0.995085
vn 0.000000 -0.108351 -0.994113
vn 0.000000 -0.195174 -0.980769
vn -0.932856 0.056698 -0.355759
vn -0.131644 0.032814 -0.990754
vn -0.247858 0.007059 -0.968771
vn -0.122952 0.109560 -0.986347
vn -0.346960 0.137405 -0.927760
vn -0.345830 -0.066436 -0.935942
vn -0.067352 -0.140444 -0.987795
vn -0.099881 -0.140958 -0.984964
vn 0.049532 -0.094745 -0.994269
vn 0.223405 0.033691 -0.974143
vn 0.132269 0.003209 -0.991209
vn 0.085881 0.148754 -0.985138
vn -0.270250 0.004858 -0.962778
vn 0.156133 0.163736 -0.974070
vn 0.126372 0.094032 -0.987516
vn 0.163987 0.070707 -0.983925
vn 0.000000 0.169959 -0.985451
vn 0.000000 -1.000000 0.000000
vn 0.000000 -1.000000 0.000000
vn 0.000000 -1.000000 0.000000
vn 0.000000 -1.000000 0.000000
vn 0.000000 -1.000000 0.000000
vn 0.000000 -1.000000 0.000000
vn 0.000000 -1.000000 0.000000
vn 0.000000 -1.000000 0.000000
vn 0.000000 -1.000000 0.000000
vn 0.957610 0.193155 0.213714
vn 0.996302 0.085915 0.000000
vn 0.977178 -0.053875 0.205478
vn 0.929190 0.229875 0.289420
vn 0.964726 0.060485 0.256212
vn 0.986164 -0.165761 -0.002092
vn 0.969562 -0.210288 0.125413
vn 0.997421 0.000000 -0.071773
vn 0.954087 0.200968 -0.222106
vn 0.982975 -0.102429 -0.152540
vn 0.995682 -0.044520 -0.081460
vn 0.983779 0.009332 0.179144
vn 0.996198 -0.084652 0.020576
vn 0.975414 -0.075143 -0.207174
vn 0.977697 -0.181691 -0.105347
vn 0.995232 0.067916 -0.070007
vn 0.686757 -0.046516 -0.725397
vn 0.772775 -0.094230 -0.627646
vn 0.868891 -0.040452 -0.493348
vn 0.916923 -0.060375 -0.394470
vn 0.998550 -0.053842 0.000000
vn 0.894427 0.000000 -0.447214
vn 0.913223 -0.000000 -0.407460
vn 0.859209 -0.277849 -0.429604
vn 0.909736 -0.225477 -0.348628
vn 1.000000 0.000000 0.000000
vn -0.912464 0.161999 0.375720
vn -0.925132 0.221825 0.308099
vn -0.906351 0.032061 0.421307
vn -0.898709 0.022960 0.437944
vn -0.893341 0.449379 0.000000
vn -0.821927 -0.225521 0.523045
vn -0.979040 -0.158325 0.128114
vn -0.954115 -0.078676 -0.288921
vn -0.514464 0.011052 -0.857441
vn -0.878249 -0.189337 0.439125
vn -0.930290 -0.134567 0.341250
vn -0.750602 -0.012192 -0.660642
vn -0.967982 0.103921 -0.228497
vn -0.993513 0.047043 -0.103536
vn -0.996132 0.032177 -0.081769
vn -0.987412 -0.093076 -0.127887
vn -0.985838 -0.099790 -0.134780
vn -0.966986 -0.224980 -0.119676
vn -0.957847 -0.245215 -0.149663
vn -0.989829 -0.142261 0.000000
s 1
g pCube72
usemtl initialShadingGroup
f 1/1/1 2/2/2 4/4/3
f 2/2/2 3/3/4 4/4/3
s 2
f 4/4/5 6/6/6 5/5/7
f 4/4/5 7/7/8 6/6/6
f 5/5/7 6/6/6 9/9/9 8/8/10
f 6/6/6 7/7/8 10/10/11 9/9/9
f 8/8/10 9/9/9 12/12/12 11/11/13
f 9/9/9 10/10/11 12/12/12
f 11/11/13 12/12/12 13/13/14
f 13/13/14 15/15/15 14/14/16
f 14/14/16 15/15/15 17/17/17 16/16/18
f 15/15/15 18/18/19 17/17/17
f 16/16/18 17/17/17 19/19/20
f 17/17/17 18/18/19 20/20/21 19/19/20
f 16/16/18 19/19/20 22/22/22 21/21/23
f 19/19/20 20/20/21 22/22/22
f 21/21/23 22/22/22 23/23/24
f 22/22/22 24/24/25 23/23/24
f 23/23/24 24/24/25 26/26/26 25/25/27
f 25/25/27 28/28/28 27/27/29
f 25/25/27 26/26/26 29/29/30 28/28/28
s 4
f 27/27/31 28/28/32 31/31/33 30/30/34
f 28/28/32 29/29/35 32/32/36 31/31/33
f 30/30/34 31/31/33 34/34/37 33/33/38
f 31/31/33 32/32/36 35/35/39 34/34/37
s 5
f 33/33/40 34/34/41 36/36/42
f 34/34/41 35/35/43 36/36/42
s 6
f 36/36/44 38/38/45 37/37/46
f 37/37/46 38/38/45 39/39/47
s 7
f 39/39/48 40/41/49 16/40/50
f 16/40/50 40/41/49 41/42/51
s 8
f 41/42/52 42/44/53 11/43/54
f 41/42/52 43/45/55 42/44/53
f 42/44/53 43/45/55 44/46/56 11/43/54
f 11/43/54 44/46/56 10/48/57 8/47/58
f 8/47/58 45/50/59 5/49/60
f 8/47/58 10/48/57 45/50/59
f 5/49/60 45/50/59 46/51/61
f 46/51/61 45/50/59 48/53/62 47/52/63
f 45/50/59 49/54/64 48/53/62
s 9
f 47/52/65 48/53/66 51/56/67 50/55/68
f 48/53/66 49/54/69 52/57/70 51/56/67
f 50/55/68 51/56/67 2/59/71 1/58/72
f 51/56/67 52/57/70 3/60/73 2/59/71
s 10
f 52/62/74 49/61/75 45/63/76
f 3/3/77 52/62/74 45/63/76 4/4/78
f 4/4/78 45/63/76 53/64/79 7/7/80
f 53/64/79 45/63/76 10/10/81
f 7/7/80 53/64/79 10/10/81
s 2
f 10/10/82 44/65/83 12/12/12
f 12/12/12 44/65/83 43/66/84 54/67/85
f 12/12/12 54/67/85 13/13/14
f 54/67/85 43/66/84 41/68/86
f 13/13/14 54/67/85 41/68/86 15/15/15
f 15/15/15 41/68/86 40/69/87 18/18/88
f 18/18/88 40/69/87 20/20/89
f 40/69/87 39/70/90 22/22/91
f 20/20/89 40/69/87 22/22/91
f 22/22/91 39/70/90 38/71/92 55/72/93
f 22/22/91 55/72/93 24/24/94
f 55/72/93 38/71/92 36/73/95 26/26/96
f 24/24/94 55/72/93 26/26/96
f 26/26/96 36/73/95 35/74/97 32/75/98
f 26/26/96 32/75/98 29/29/99
s 13
f 47/76/100 50/77/101 4/4/102 46/78/103
f 50/77/101 1/1/104 4/4/102
f 46/78/103 4/4/102 5/5/105
s 14
f 11/11/106 56/80/107 41/79/108
f 11/11/106 13/13/109 14/14/110 56/80/107
f 41/79/108 56/80/107 16/16/111
f 56/80/107 14/14/110 16/16/111
s 7
f 16/16/50 21/21/112 39/81/48
f 39/81/48 23/23/113 37/82/114
f 39/81/48 21/21/112 23/23/113
f 37/82/114 23/23/113 25/25/115 36/83/116
f 36/83/116 25/25/115 30/85/117 33/84/118
f 25/25/115 27/27/119 30/85/117
