# This file uses centimeters as units for non-parametric coordinates.

mtllib Wallv2.mtl
g default
v -6.490973 3.069742 3.819101
v -6.490973 2.096924 4.451371
v -6.490973 1.124106 5.064538
v -6.490973 0.151288 5.064538
v -6.490973 -0.821530 4.451371
v -6.490973 -1.794348 3.819101
v -6.490973 3.069742 2.893831
v -6.490973 2.096924 3.498033
v -6.490973 1.124106 4.091722
v -6.490973 0.151288 4.091722
v -6.490973 -0.821530 3.498033
v -6.490973 -1.794348 2.893831
v -6.490973 3.069742 1.897775
v -6.490973 2.096924 2.513154
v -6.490973 1.124106 3.118898
v -6.490973 0.151288 3.118898
v -6.490973 -0.821530 2.513154
v -6.490973 -1.794348 1.897775
v -6.490973 3.069742 0.889909
v -6.490973 2.096924 1.565347
v -6.490973 1.124106 2.146081
v -6.490973 0.151288 2.146081
v -6.490973 -0.821530 1.565347
v -6.490973 -1.794348 0.889909
v -6.490973 3.069742 -0.079642
v -6.490973 2.096924 0.610574
v -6.490973 1.124106 1.173265
v -6.490973 0.151288 1.173265
v -6.490973 -0.821530 0.610574
v -6.490973 -1.794348 -0.079642
v -6.490973 3.069742 -1.067488
v -6.490973 2.096924 -0.358313
v -6.490973 1.124106 0.200448
v -6.490973 0.151288 0.200448
v -6.490973 -0.821530 -0.358313
v -6.490973 -1.794348 -1.067488
v -6.119151 3.069742 3.819101
v -6.119151 2.096924 4.451371
v -6.119151 2.096924 3.498033
v -6.119151 3.069742 2.893831
v -6.119151 1.124106 5.064538
v -6.119151 1.124106 4.091722
v -6.119151 0.151288 5.064538
v -6.119151 0.151288 4.091722
v -6.119151 -0.821530 4.451371
v -6.119151 -0.821530 3.498033
v -6.119151 -1.794348 3.819101
v -6.119151 -1.794348 2.893831
v -6.119151 3.069742 1.897775
v -6.119151 2.096924 2.513154
v -6.119151 2.096924 1.565347
v -6.119151 3.069742 0.889909
v -6.119151 1.124106 3.118898
v -6.119151 1.124106 2.146081
v -6.119151 0.151288 3.118898
v -6.119151 0.151288 2.146081
v -6.119151 -0.821530 2.513154
v -6.119151 -0.821530 1.565347
v -6.119151 -1.794348 1.897775
v -6.119151 -1.794348 0.889909
v -6.119151 3.069742 -0.079642
v -6.119151 2.096924 0.610574
v -6.119151 2.096924 -0.358313
v -6.119151 3.069742 -1.067488
v -6.119151 1.124106 1.173265
v -6.119151 1.124106 0.200448
v -6.119151 0.151288 1.173265
v -6.119151 0.151288 0.200448
v -6.119151 -0.821530 0.610574
v -6.119151 -0.821530 -0.358313
v -6.119151 -1.794347 -0.079642
v -6.119151 -1.794347 -1.067488
v -6.490973 0.647467 5.336847
v -6.119151 0.647467 5.336847
v -6.119151 0.647467 4.364023
v -6.490973 0.647467 4.364023
v -6.490973 0.647467 3.391206
v -6.119151 0.647467 3.391206
v -6.119151 0.647467 2.418390
v -6.490973 0.647467 2.418390
v -6.490973 0.647467 1.445573
v -6.119151 0.647467 1.445573
v -6.119151 0.647467 0.472757
v -6.490973 0.647467 0.472757
v -7.488811 -5.111484 13.583970
v -7.488811 6.007509 13.583970
v -7.488811 6.007509 -8.715682
v -7.488811 -5.111484 -8.715682
v -6.488811 -4.611534 13.084012
v -6.785966 -4.603974 13.096166
v -6.988760 -5.111484 13.583970
v -6.988760 6.007509 13.583970
v -6.785966 5.500000 13.096166
v -6.488811 5.507560 13.084012
v -6.988760 6.007509 -8.715682
v -6.785966 5.500000 -8.227889
v -6.488811 5.507560 -8.215743
v -6.988760 -5.111484 -8.715682
v -6.785966 -4.603974 -8.227889
v -6.488811 -4.611534 -8.215743
v -6.488811 4.632554 -8.215743
v -6.785966 4.626301 -8.227889
v -6.988760 5.046041 -8.715682
v -7.488811 5.046041 -8.715682
v -7.488811 5.046041 13.583970
v -6.988760 5.046041 13.583970
v -6.785966 4.626301 13.096166
v -6.488811 4.632554 13.084012
v -6.488811 -3.438166 -8.215743
v -6.785966 -3.432360 -8.227889
v -6.988760 -3.822172 -8.715682
v -7.488811 -3.822172 -8.715682
v -7.488811 -3.822172 13.583970
v -6.988760 -3.822172 13.583970
v -6.785966 -3.432360 13.096166
v -6.488811 -3.438166 13.084012
v -6.488811 -3.370910 12.906511
v -6.488811 -3.370910 -8.038253
v -6.488811 4.565298 -8.038253
v -6.488811 4.565298 12.906511
v -6.667861 -3.370910 12.906511
v -6.667861 -3.370910 -8.038253
v -6.667861 4.565298 -8.038253
v -6.667861 4.565298 12.906511
v -6.729548 -4.339809 12.910062
v -6.048435 -4.339809 12.910062
v -6.729548 5.311625 12.910062
v -6.048435 5.311625 12.910062
v -6.729548 5.311625 -8.021788
v -6.048435 5.311625 -8.021788
v -6.729548 -4.339809 -8.021788
v -6.048435 -4.339809 -8.021788
vt 0.000000 0.000000
vt 0.200000 0.000000
vt 0.200000 0.200000
vt 0.000000 0.200000
vt 0.400000 0.000000
vt 0.400000 0.200000
vt 0.497992 0.000000
vt 0.497992 0.200000
vt 0.600000 0.000000
vt 0.800000 0.000000
vt 0.800000 0.200000
vt 0.600000 0.200000
vt 1.000000 0.000000
vt 1.000000 0.200000
vt 0.400000 0.200000
vt 0.497992 0.200000
vt 0.497992 0.400000
vt 0.400000 0.400000
vt 0.000000 0.400000
vt 0.200000 0.400000
vt 0.200000 0.600000
vt 0.000000 0.600000
vt 0.400000 0.400000
vt 0.400000 0.600000
vt 0.497992 0.400000
vt 0.497992 0.600000
vt 0.600000 0.400000
vt 0.800000 0.400000
vt 0.800000 0.600000
vt 0.600000 0.600000
vt 1.000000 0.400000
vt 1.000000 0.600000
vt 0.400000 0.600000
vt 0.497992 0.600000
vt 0.497992 0.800000
vt 0.400000 0.800000
vt 0.000000 0.800000
vt 0.200000 0.800000
vt 0.200000 1.000000
vt 0.000000 1.000000
vt 0.400000 0.800000
vt 0.400000 1.000000
vt 0.497992 0.800000
vt 0.497992 1.000000
vt 0.600000 0.800000
vt 0.800000 0.800000
vt 0.800000 1.000000
vt 0.600000 1.000000
vt 1.000000 0.800000
vt 1.000000 1.000000
vt 0.000000 0.000000
vt 0.200000 0.000000
vt 0.200000 0.200000
vt 0.000000 0.200000
vt 0.400000 0.000000
vt 0.497992 0.000000
vt 0.600000 0.000000
vt 0.800000 0.000000
vt 0.800000 0.200000
vt 0.600000 0.200000
vt 1.000000 0.000000
vt 1.000000 0.200000
vt 0.000000 0.400000
vt 0.200000 0.400000
vt 0.200000 0.600000
vt 0.000000 0.600000
vt 0.600000 0.400000
vt 0.800000 0.400000
vt 0.800000 0.600000
vt 0.600000 0.600000
vt 1.000000 0.400000
vt 1.000000 0.600000
vt 0.000000 0.800000
vt 0.200000 0.800000
vt 0.200000 1.000000
vt 0.000000 1.000000
vt 0.400000 1.000000
vt 0.497992 1.000000
vt 0.600000 0.800000
vt 0.800000 0.800000
vt 0.800000 1.000000
vt 0.600000 1.000000
vt 1.000000 0.800000
vt 1.000000 1.000000
vt 0.125000 0.228382
vt 0.375000 0.228382
vt 0.375000 0.250000
vt 0.125000 0.250000
vt 0.500013 0.228382
vt 0.625000 0.228382
vt 0.625000 0.250000
vt 0.500013 0.250000
vt 0.630605 0.219085
vt 0.630605 0.238759
vt 0.500013 0.500000
vt 0.375000 0.500000
vt 0.500013 0.521618
vt 0.375000 0.521618
vt 0.375000 0.750000
vt 0.500013 0.750000
vt 0.500013 1.000000
vt 0.375000 1.000000
vt 0.869395 0.219085
vt 0.869395 0.238759
vt 0.625000 0.500000
vt 0.875000 0.250000
vt 0.625000 0.521618
vt 0.875000 0.228382
vt 0.630605 0.011241
vt 0.625000 0.000000
vt 0.875000 0.000000
vt 0.869395 0.011241
vt 0.625000 1.000000
vt 0.625000 0.750000
vt 0.869395 0.037623
vt 0.875000 0.028989
vt 0.625000 0.721011
vt 0.500013 0.721011
vt 0.375000 0.721011
vt 0.125000 0.028989
vt 0.375000 0.028989
vt 0.500013 0.028989
vt 0.625000 0.028989
vt 0.630605 0.037623
vt 0.630605 0.037623
vt 0.869395 0.037623
vt 0.869395 0.219085
vt 0.630605 0.219085
vt 0.125000 0.000000
vt 0.375000 0.000000
vt 0.500013 0.000000
vt 0.869395 0.037623
vt 0.630605 0.037623
vt 0.869395 0.219085
vt 0.630605 0.219085
vt 0.375000 0.000000
vt 0.625000 0.000000
vt 0.625000 0.250000
vt 0.375000 0.250000
vt 0.625000 0.500000
vt 0.375000 0.500000
vt 0.625000 0.750000
vt 0.375000 0.750000
vt 0.625000 1.000000
vt 0.375000 1.000000
vt 0.875000 0.000000
vt 0.875000 0.250000
vt 0.125000 0.000000
vt 0.125000 0.250000
vn 1.000000 0.000001 0.000000
vn 1.000000 0.000000 0.000000
vn 1.000000 0.000000 0.000000
vn 1.000000 0.000001 0.000000
vn 1.000000 0.000000 0.000000
vn 1.000000 0.000000 0.000000
vn 1.000000 0.000000 0.000000
vn 1.000000 0.000000 0.000000
vn 1.000000 -0.000000 0.000000
vn 1.000000 -0.000001 0.000000
vn 1.000000 -0.000001 0.000000
vn 1.000000 -0.000000 0.000000
vn 1.000000 -0.000001 0.000000
vn 1.000000 -0.000001 0.000000
vn 1.000000 -0.000001 0.000000
vn 1.000000 0.000000 0.000000
vn 1.000000 0.000000 0.000000
vn 1.000000 -0.000001 0.000000
vn 1.000000 0.000001 0.000000
vn 1.000000 0.000000 0.000000
vn 1.000000 0.000000 0.000000
vn 1.000000 0.000001 0.000000
vn 1.000000 0.000000 0.000000
vn 1.000000 0.000000 0.000000
vn 1.000000 -0.000000 0.000000
vn 1.000000 -0.000000 0.000000
vn 1.000000 -0.000000 0.000000
vn 1.000000 -0.000001 0.000000
vn 1.000000 -0.000001 0.000000
vn 1.000000 -0.000000 0.000000
vn 1.000000 -0.000001 0.000000
vn 1.000000 -0.000001 0.000000
vn 1.000000 0.000000 0.000000
vn 1.000000 0.000000 0.000000
vn 1.000000 0.000000 0.000000
vn 1.000000 0.000000 0.000000
vn 1.000000 0.000000 0.000000
vn 1.000000 0.000000 0.000000
vn 1.000000 0.000000 0.000000
vn 1.000000 0.000000 0.000000
vn 1.000000 0.000000 0.000000
vn 1.000000 0.000000 0.000000
vn 1.000000 -0.000000 0.000000
vn 1.000000 -0.000000 0.000000
vn 1.000000 -0.000000 0.000000
vn 1.000000 -0.000001 0.000000
vn 1.000000 -0.000001 0.000000
vn 1.000000 -0.000000 0.000000
vn 1.000000 -0.000001 0.000000
vn 1.000000 -0.000001 0.000000
vn 0.000000 0.544951 0.838468
vn 0.000000 0.539125 0.842226
vn 0.000000 0.539125 0.842226
vn 0.000000 0.544951 0.838468
vn 0.000000 -0.524280 -0.851546
vn 0.000000 -0.527605 -0.849490
vn 0.000000 -0.527605 -0.849490
vn 0.000000 -0.524280 -0.851546
vn 0.000000 1.000000 0.000000
vn 0.000000 1.000000 0.000000
vn 0.000000 1.000000 0.000000
vn 0.000000 1.000000 0.000000
vn 0.000000 0.533219 0.845977
vn 0.000000 0.533219 0.845977
vn 0.000000 -0.520932 -0.853598
vn 0.000000 -0.520932 -0.853598
vn 0.000000 0.496061 0.868288
vn 0.000010 -0.000000 1.000000
vn 0.000010 0.000000 1.000000
vn 0.000000 0.496061 0.868288
vn 0.000003 0.000000 -1.000000
vn -0.000001 -0.496050 -0.868294
vn -0.000001 -0.496050 -0.868294
vn 0.000003 -0.000000 -1.000000
vn 0.000004 -0.533219 0.845977
vn 0.000009 -0.539125 0.842226
vn 0.000009 -0.539125 0.842226
vn 0.000004 -0.533219 0.845977
vn 0.000007 0.524280 -0.851546
vn 0.000015 0.520932 -0.853598
vn 0.000015 0.520932 -0.853598
vn 0.000007 0.524280 -0.851546
vn 0.000015 -0.544951 0.838468
vn 0.000015 -0.544951 0.838468
vn 0.000000 -1.000000 0.000000
vn 0.000000 -1.000000 0.000000
vn 0.000000 -1.000000 0.000000
vn 0.000000 -1.000000 0.000000
vn 0.000000 0.527605 -0.849490
vn 0.000000 0.527605 -0.849490
vn 0.000000 0.534594 0.845109
vn 0.000000 0.531595 0.846999
vn 0.000000 0.531595 0.846999
vn 0.000000 0.534594 0.845109
vn -0.000002 -0.542408 -0.840115
vn 0.000000 -0.570322 -0.821421
vn 0.000000 -0.570322 -0.821421
vn -0.000002 -0.542408 -0.840115
vn 0.000000 1.000000 0.000000
vn 0.000000 1.000000 0.000000
vn 0.000000 1.000000 0.000000
vn 0.000000 1.000000 0.000000
vn 0.000000 0.528575 0.848886
vn 0.000000 0.528575 0.848886
vn -0.000004 -0.512576 -0.858642
vn -0.000004 -0.512576 -0.858642
vn -0.000007 0.496061 0.868288
vn -0.000004 0.000000 1.000000
vn -0.000004 0.000000 1.000000
vn -0.000007 0.496061 0.868288
vn -0.000014 0.000000 -1.000000
vn -0.000019 -0.496061 -0.868288
vn -0.000019 -0.496061 -0.868288
vn -0.000014 0.000000 -1.000000
vn -0.000003 -0.528575 0.848886
vn -0.000001 -0.531595 0.846999
vn -0.000001 -0.531595 0.846999
vn -0.000003 -0.528575 0.848886
vn 0.000001 0.542408 -0.840115
vn 0.000002 0.512576 -0.858642
vn 0.000002 0.512576 -0.858642
vn 0.000001 0.542408 -0.840115
vn 0.000002 -0.534594 0.845109
vn 0.000002 -0.534594 0.845109
vn 0.000000 -1.000000 0.000000
vn 0.000000 -1.000000 0.000000
vn 0.000000 -1.000000 0.000000
vn 0.000000 -1.000000 0.000000
vn 0.000000 0.570322 -0.821421
vn 0.000000 0.570322 -0.821421
vn 0.000000 0.578651 0.815575
vn 0.000000 0.541412 0.840758
vn 0.000000 0.541412 0.840758
vn 0.000000 0.578651 0.815575
vn 0.000000 -0.545979 -0.837799
vn 0.000000 -0.589079 -0.808075
vn 0.000000 -0.589079 -0.808075
vn 0.000000 -0.545979 -0.837799
vn 0.000000 1.000000 0.000000
vn 0.000000 1.000000 0.000000
vn 0.000000 1.000000 0.000000
vn 0.000000 1.000000 0.000000
vn 0.000000 0.500690 0.865627
vn 0.000000 0.500690 0.865627
vn 0.000000 -0.497406 -0.867518
vn 0.000000 -0.497406 -0.867518
vn 0.000000 0.496061 0.868288
vn 0.000000 0.000000 1.000000
vn 0.000000 0.000000 1.000000
vn 0.000000 0.496061 0.868288
vn 0.000000 0.000000 -1.000000
vn 0.000000 0.000000 -1.000000
vn 0.000000 -0.500690 0.865627
vn -0.000002 -0.541412 0.840757
vn -0.000002 -0.541412 0.840757
vn 0.000000 -0.500690 0.865627
vn -0.000006 0.545979 -0.837799
vn -0.000004 0.492402 -0.870368
vn -0.000004 0.492402 -0.870368
vn -0.000006 0.545979 -0.837799
vn -0.000005 -0.578651 0.815575
vn -0.000005 -0.578652 0.815575
vn 0.000001 -1.000000 0.000000
vn 0.000001 -1.000000 0.000000
vn 0.000001 -1.000000 0.000000
vn 0.000001 -1.000000 0.000000
vn -0.000006 0.589079 -0.808075
vn -0.000006 0.589079 -0.808075
vn 0.000017 -0.481119 0.876655
vn 0.000017 -0.481119 0.876655
vn 0.000007 0.481108 -0.876661
vn 0.000007 0.481108 -0.876661
vn 1.000000 0.000001 0.000000
vn 1.000000 0.000001 0.000000
vn 0.000000 -0.481119 0.876655
vn 0.000000 -0.481119 0.876655
vn -0.000006 0.481119 -0.876655
vn -0.000006 0.481119 -0.876655
vn 1.000000 0.000000 0.000000
vn 1.000000 0.000000 0.000000
vn 0.000000 -0.481119 0.876655
vn 0.000000 -0.481119 0.876655
vn -1.000000 0.000000 0.000000
vn -1.000000 0.000000 0.000000
vn -1.000000 0.000000 0.000000
vn -1.000000 0.000000 0.000000
vn 0.437964 0.000000 0.898993
vn 0.923384 0.000000 0.383879
vn 0.923384 0.000000 0.383877
vn 0.370048 0.000000 0.929012
vn 0.040867 0.000000 0.999165
vn 0.991617 -0.000000 0.129214
vn 0.943319 0.331632 0.013046
vn 0.040856 0.000000 0.999165
vn 0.000000 0.000000 1.000000
vn 0.000000 0.000000 1.000000
vn 0.000000 1.000000 0.000000
vn 0.401871 0.915697 0.000000
vn 0.401875 0.915695 0.000000
vn 0.000000 1.000000 0.000000
vn 0.000000 0.000000 -1.000000
vn 0.370042 0.000000 -0.929015
vn 0.437957 0.000000 -0.898996
vn 0.000000 0.000000 -1.000000
vn 0.000000 -1.000000 0.000000
vn 0.401875 -0.915695 0.000000
vn 0.401871 -0.915696 0.000000
vn 0.000000 -1.000000 0.000000
vn 0.991617 -0.000000 -0.129215
vn 0.943320 0.331627 -0.013046
vn 0.928609 0.371061 0.000000
vn 0.928609 0.371061 0.000000
vn -0.025432 0.999677 0.000000
vn -0.025432 0.999677 0.000000
vn 0.923382 0.000000 -0.383883
vn 0.923382 0.000000 -0.383884
vn 0.040841 0.000000 -0.999166
vn 0.040843 0.000000 -0.999166
vn 0.967365 -0.253034 0.013348
vn -0.025432 -0.999677 0.000000
vn -0.025432 -0.999677 0.000000
vn 0.967366 -0.253030 -0.013348
vn 0.928609 -0.371060 0.000000
vn 0.928609 -0.371060 0.000000
vn 0.994785 0.000000 -0.101992
vn 0.040844 0.000000 -0.999166
vn 0.923381 0.000000 -0.383884
vn 0.455472 0.000000 -0.890250
vn 0.000000 0.000000 -1.000000
vn -1.000000 0.000000 0.000000
vn -1.000000 0.000000 0.000000
vn 0.000000 0.000000 1.000000
vn 0.455480 0.000000 0.890246
vn 0.923384 0.000000 0.383879
vn 0.040866 0.000000 0.999165
vn 0.994785 0.000000 0.101991
vn 1.000000 0.000000 0.000000
vn 1.000000 0.000000 0.000000
vn 1.000000 0.000000 0.000000
vn 1.000000 0.000000 0.000000
vn 0.040849 0.000000 -0.999165
vn 0.923381 0.000000 -0.383884
vn 0.370038 0.000000 -0.929017
vn 0.000000 0.000000 -1.000000
vn -1.000000 0.000000 0.000000
vn -1.000000 0.000000 0.000000
vn 0.000000 0.000000 1.000000
vn 0.370050 0.000000 0.929012
vn 0.923385 0.000000 0.383876
vn 0.040849 0.000000 0.999165
vn 1.000000 0.000005 0.000000
vn 1.000000 0.000005 0.000000
vn 1.000000 -0.000005 0.000000
vn 1.000000 -0.000005 0.000000
vn 0.000000 1.000000 0.000000
vn 0.000000 1.000000 0.000000
vn 0.000000 1.000000 0.000000
vn 0.000000 1.000000 0.000000
vn 0.000000 0.000000 1.000000
vn 0.000000 0.000000 1.000000
vn 0.000000 0.000000 1.000000
vn 0.000000 0.000000 1.000000
vn 0.000000 -1.000000 0.000000
vn 0.000000 -1.000000 0.000000
vn 0.000000 -1.000000 0.000000
vn 0.000000 -1.000000 0.000000
vn 0.000000 0.000000 -1.000000
vn 0.000000 0.000000 -1.000000
vn 0.000000 0.000000 -1.000000
vn 0.000000 0.000000 -1.000000
vn 0.000000 0.000000 1.000000
vn 0.000000 0.000000 1.000000
vn 0.000000 0.000000 1.000000
vn 0.000000 0.000000 1.000000
vn 0.000000 1.000000 0.000000
vn 0.000000 1.000000 0.000000
vn 0.000000 1.000000 0.000000
vn 0.000000 1.000000 0.000000
vn 0.000000 0.000000 -1.000000
vn 0.000000 0.000000 -1.000000
vn 0.000000 0.000000 -1.000000
vn 0.000000 0.000000 -1.000000
vn 0.000000 -1.000000 0.000000
vn 0.000000 -1.000000 0.000000
vn 0.000000 -1.000000 0.000000
vn 0.000000 -1.000000 0.000000
vn 1.000000 0.000000 0.000000
vn 1.000000 0.000000 0.000000
vn 1.000000 0.000000 0.000000
vn 1.000000 0.000000 0.000000
vn -1.000000 0.000000 0.000000
vn -1.000000 0.000000 0.000000
vn -1.000000 0.000000 0.000000
vn -1.000000 0.000000 0.000000
s 1
g polySurface59
usemtl blinn2SG
f 37/1/1 38/2/2 39/3/3 40/4/4
f 38/2/2 41/5/5 42/6/6 39/3/3
f 41/5/5 74/7/7 75/8/8 42/6/6
f 43/9/9 45/10/10 46/11/11 44/12/12
f 45/10/10 47/13/13 48/14/14 46/11/11
s 3
f 9/15/15 76/16/16 77/17/17 15/18/18
s 4
f 49/19/19 50/20/20 51/21/21 52/22/22
f 50/20/20 53/23/23 54/24/24 51/21/21
f 53/23/23 78/25/25 79/26/26 54/24/24
f 55/27/27 57/28/28 58/29/29 56/30/30
f 57/28/28 59/31/31 60/32/32 58/29/29
s 6
f 21/33/33 80/34/34 81/35/35 27/36/36
s 7
f 61/37/37 62/38/38 63/39/39 64/40/40
f 62/38/38 65/41/41 66/42/42 63/39/39
f 65/41/41 82/43/43 83/44/44 66/42/42
f 67/45/45 69/46/46 70/47/47 68/48/48
f 69/46/46 71/49/49 72/50/50 70/47/47
s 9
f 1/51/51 2/52/52 38/2/53 37/1/54
s 10
f 8/53/55 7/54/56 40/4/57 39/3/58
s off
f 7/54/59 1/51/60 37/1/61 40/4/62
s 9
f 2/52/52 3/55/63 41/5/64 38/2/53
s 10
f 9/15/65 8/53/55 39/3/58 42/6/66
s 11
f 3/55/67 73/56/68 74/7/69 41/5/70
s 12
f 76/16/71 9/15/72 42/6/73 75/8/74
s 13
f 4/57/75 5/58/76 45/10/77 43/9/78
s 14
f 11/59/79 10/60/80 44/12/81 46/11/82
s 13
f 5/58/76 6/61/83 47/13/84 45/10/77
s off
f 6/61/85 12/62/86 48/14/87 47/13/88
s 14
f 12/62/89 11/59/79 46/11/82 48/14/90
s 15
f 13/63/91 14/64/92 50/20/93 49/19/94
s 16
f 20/65/95 19/66/96 52/22/97 51/21/98
s off
f 19/66/99 13/63/100 49/19/101 52/22/102
s 15
f 14/64/92 15/18/103 53/23/104 50/20/93
s 16
f 21/33/105 20/65/95 51/21/98 54/24/106
s 17
f 15/18/107 77/17/108 78/25/109 53/23/110
s 18
f 80/34/111 21/33/112 54/24/113 79/26/114
s 19
f 16/67/115 17/68/116 57/28/117 55/27/118
s 20
f 23/69/119 22/70/120 56/30/121 58/29/122
s 19
f 17/68/116 18/71/123 59/31/124 57/28/117
s off
f 18/71/125 24/72/126 60/32/127 59/31/128
s 20
f 24/72/129 23/69/119 58/29/122 60/32/130
s 21
f 25/73/131 26/74/132 62/38/133 61/37/134
s 22
f 32/75/135 31/76/136 64/40/137 63/39/138
s off
f 31/76/139 25/73/140 61/37/141 64/40/142
s 21
f 26/74/132 27/36/143 65/41/144 62/38/133
s 22
f 33/77/145 32/75/135 63/39/138 66/42/146
s 23
f 27/36/147 81/35/148 82/43/149 65/41/150
s 22
f 84/78/151 33/77/145 66/42/146 83/44/152
s 24
f 28/79/153 29/80/154 69/46/155 67/45/156
s 22
f 35/81/157 34/82/158 68/48/159 70/47/160
s 24
f 29/80/154 30/83/161 71/49/162 69/46/155
s off
f 30/83/163 36/84/164 72/50/165 71/49/166
s 22
f 36/84/167 35/81/157 70/47/160 72/50/168
s 11
f 73/56/68 4/57/169 43/9/170 74/7/69
s 1
f 75/8/8 74/7/7 43/9/9 44/12/12
s 12
f 10/60/171 76/16/71 75/8/74 44/12/172
s 3
f 77/17/17 76/16/16 10/60/173 16/67/174
s 17
f 78/25/109 77/17/108 16/67/175 55/27/176
s 4
f 79/26/26 78/25/25 55/27/27 56/30/30
s 18
f 22/70/177 80/34/111 79/26/114 56/30/178
s 6
f 81/35/35 80/34/34 22/70/179 28/79/180
s 23
f 82/43/149 81/35/148 28/79/181 67/45/182
s 7
f 83/44/44 82/43/43 67/45/45 68/48/48
s 22
f 34/82/158 84/78/151 83/44/152 68/48/159
s 25
usemtl initialShadingGroup
f 104/85/183 105/86/184 86/87/185 87/88/186
s 26
f 106/89/187 107/90/188 93/91/189 92/92/190
s 27
f 107/90/191 108/93/192 94/94/193 93/91/194
s 26
f 105/86/195 106/89/187 92/92/190 86/87/196
s 28
f 86/87/197 92/92/198 95/95/199 87/96/200
s 29
f 87/96/201 95/95/202 103/97/203 104/98/204
s 30
f 88/99/205 98/100/206 91/101/207 85/102/208
s 27
f 108/93/192 101/103/209 97/104/210 94/94/193
s 28
f 92/92/198 93/91/211 96/105/212 95/95/199
s 27
f 93/91/213 94/94/193 97/104/210 96/106/214
s 29
f 95/95/202 96/105/215 102/107/216 103/97/203
s 27
f 96/106/217 97/104/210 101/103/209 102/108/218
f 89/109/219 90/110/220 99/111/221 100/112/222
s 30
f 90/113/223 91/101/207 98/100/206 99/114/224
s 27
f 102/108/218 101/103/209 109/115/225 110/116/226
s 29
f 103/97/203 102/107/216 110/117/227 111/118/228
f 104/98/204 103/97/203 111/118/228 112/119/229
s 25
f 112/120/230 113/121/231 105/86/184 104/85/183
s 26
f 113/121/232 114/122/233 106/89/187 105/86/195
f 114/122/233 115/123/234 107/90/188 106/89/187
s 27
f 115/123/235 116/124/236 108/93/192 107/90/191
s off
f 121/125/237 122/126/238 123/127/239 124/128/240
s 27
f 110/116/226 109/115/225 100/112/222 99/111/241
s 29
f 111/118/228 110/117/227 99/114/242 98/100/243
f 112/119/229 111/118/228 98/100/243 88/99/244
s 25
f 88/129/245 85/130/246 113/121/231 112/120/230
s 26
f 85/130/247 91/131/248 114/122/233 113/121/232
f 91/131/248 90/110/249 115/123/234 114/122/233
s 27
f 90/110/250 89/109/219 116/124/236 115/123/235
f 89/109/219 100/112/222 109/115/225 116/124/236
f 116/124/236 109/115/225 118/132/251 117/133/252
f 109/115/225 101/103/209 119/134/253 118/132/251
f 101/103/209 108/93/192 120/135/254 119/134/253
f 108/93/192 116/124/236 117/133/252 120/135/254
s off
f 117/133/255 118/132/256 122/126/257 121/125/258
f 118/132/259 119/134/260 123/127/261 122/126/262
f 119/134/263 120/135/264 124/128/265 123/127/266
f 120/135/267 117/133/268 121/125/269 124/128/270
usemtl blinn7SG
f 125/136/271 126/137/272 128/138/273 127/139/274
f 127/139/275 128/138/276 130/140/277 129/141/278
f 129/141/279 130/140/280 132/142/281 131/143/282
f 131/143/283 132/142/284 126/144/285 125/145/286
f 126/137/287 132/146/288 130/147/289 128/138/290
f 131/148/291 125/136/292 127/139/293 129/149/294
