# This file uses centimeters as units for non-parametric coordinates.

mtllib Box2.mtl
g default
v 0.000000 0.163825 1.729525
v 0.000000 0.163825 0.000001
v 0.000000 0.163825 -1.729525
v -1.728986 0.163825 0.057103
v 1.728934 0.163825 0.038708
v -1.728986 0.163825 -0.057101
v 1.728934 0.163825 -0.038706
v -1.870451 0.214298 1.648371
v -1.870451 0.214298 0.081155
v 1.870451 0.214298 1.648371
v 1.870451 0.214298 0.081155
v -1.870451 0.214298 -0.081153
v -1.870451 0.214298 -1.648371
v 1.870451 0.214298 -0.081153
v 1.870451 0.214298 -1.648371
v 1.938739 0.180989 1.708562
v 1.924821 0.163825 1.729525
v 1.962529 0.137243 1.729525
v 1.962204 0.156039 1.717833
v 1.961384 0.163825 1.689601
v 1.962529 0.145022 0.000001
v 1.953138 0.158318 0.000001
v 1.743541 0.163825 0.000001
v 1.961384 0.163825 -1.689601
v 1.962204 0.156039 -1.717831
v 1.962529 0.137243 -1.729525
v 1.924821 0.163825 -1.729525
v 1.962529 0.163825 1.729525
v 1.962529 0.163825 -1.729525
v -1.961384 0.163825 1.689601
v -1.962178 0.156039 1.717833
v -1.962529 0.137243 1.729525
v -1.924808 0.163825 1.729525
v -1.962529 0.145022 0.000001
v -1.953125 0.158318 0.000001
v -1.744373 0.163825 0.000001
v -1.938739 0.180989 -1.708559
v -1.924808 0.163825 -1.729525
v -1.962529 0.137243 -1.729525
v -1.962178 0.156039 -1.717831
v -1.961384 0.163825 -1.689601
v -1.962529 0.163825 1.729525
v -1.962529 0.163825 -1.729525
v 0.000000 0.196802 0.049618
v 0.000000 0.203423 0.073659
v -1.894410 0.203647 0.060026
v -1.908666 0.189851 0.041433
v -1.908666 0.189851 -0.041432
v -1.894410 0.203647 -0.060024
v 0.000000 0.203423 -0.073658
v 0.000000 0.196802 -0.049616
v 0.014776 0.203304 -1.670177
v 0.000000 0.191639 -1.687676
v -0.028408 0.203588 -1.669619
v 0.000000 0.203423 -1.656938
v 0.014776 0.203509 -1.669775
v -1.917277 0.193223 -1.689646
v 0.028434 0.203588 1.669619
v 0.000000 0.203423 1.656938
v -0.014750 0.203509 1.669776
v -0.014750 0.203304 1.670177
v 0.000000 0.191639 1.687675
v 1.917277 0.193223 1.689647
v -1.937126 0.182154 1.707137
v -1.928021 0.181141 1.708373
v -1.914493 0.187955 1.699965
v -1.917303 0.193212 1.689667
v -1.938401 0.180994 1.697177
v 1.894436 0.203647 0.060026
v 1.908666 0.189851 0.041433
v 1.894436 0.203647 -0.060024
v 1.908666 0.189851 -0.041432
v 1.937126 0.182154 -1.707137
v 1.928021 0.181141 -1.708372
v 1.914493 0.187955 -1.699965
v 1.917303 0.193212 -1.689666
v 1.938427 0.180994 -1.697175
v 0.000000 -0.214298 1.729525
v 1.924821 -0.214298 1.729525
v 0.000000 -0.214298 -1.729525
v 1.924821 -0.214298 -1.729525
v 1.962529 -0.214298 1.729525
v 1.962529 -0.214298 -1.729525
v 1.962529 -0.214298 0.000001
v -1.924808 -0.214298 1.729525
v -1.962529 -0.214298 1.729525
v -1.924808 -0.214298 -1.729525
v -1.962529 -0.214298 -1.729525
v -1.962529 -0.214298 0.000001
vt 0.622598 0.500000
vt 0.625000 0.497084
vt 0.875000 0.247114
vt 0.750000 0.247958
vt 0.625000 0.252916
vt 0.622958 0.375000
vt 0.625000 0.247114
vt 0.625000 0.250000
vt 0.622608 0.250000
vt 0.875000 0.250000
vt 0.625000 0.250000
vt 0.625000 0.250000
vt 0.625000 0.375000
vt 0.750000 0.250000
vt 0.625000 0.500000
vt 0.624554 0.250047
vt 0.500000 0.250000
vt 0.375000 0.252916
vt 0.375000 0.247114
vt 0.250000 0.247958
vt 0.377042 0.375000
vt 0.125000 0.247114
vt 0.375000 0.497084
vt 0.377402 0.250000
vt 0.375000 0.500000
vt 0.377392 0.500000
vt 0.375000 0.375000
vt 0.250000 0.250000
vt 0.375000 0.500000
vt 0.125000 0.250000
vt 0.375446 0.499953
vt 0.372114 0.250000
vt 0.375000 0.250000
vt 0.375156 0.249969
vt 0.374178 0.250000
vt 0.375669 0.250000
vt 0.375657 0.249869
vt 0.375957 0.250000
vt 0.499042 0.250000
vt 0.872114 0.250000
vt 0.875000 0.250000
vt 0.873390 0.249969
vt 0.872693 0.250000
vt 0.873503 0.250000
vt 0.874896 0.249869
vt 0.624043 0.500000
vt 0.624331 0.500000
vt 0.500000 0.500000
vt 0.500000 0.500000
vt 0.500956 0.500000
vt 0.500957 0.498569
vt 0.622190 0.497116
vt 0.500000 0.375000
vt 0.624397 0.375000
vt 0.468500 0.373921
vt 0.375521 0.374994
vt 0.375000 0.250831
vt 0.375571 0.250586
vt 0.468502 0.376079
vt 0.500000 0.375000
vt 0.466167 0.498948
vt 0.375117 0.499999
vt 0.501817 0.250000
vt 0.500000 0.250000
vt 0.625000 0.499169
vt 0.624429 0.499414
vt 0.375975 0.373999
vt 0.377810 0.372116
vt 0.498143 0.498536
vt 0.375572 0.499413
vt 0.377810 0.252884
vt 0.500000 0.252429
vt 0.377810 0.497116
vt 0.500000 0.377510
vt 0.500964 0.498546
vt 0.500000 0.497571
vt 0.375000 0.375000
vt 0.500000 0.375000
vt 0.375000 0.375000
vt 0.625000 0.250000
vt 0.625000 0.374991
vt 0.500000 0.375000
vt 0.375000 0.375000
vt 0.375000 0.500000
vt 0.625000 0.375000
vt 0.500000 0.375000
vt 0.625000 0.375000
vt 0.501857 0.251464
vt 0.624428 0.250587
vt 0.622190 0.252884
vt 0.624025 0.373999
vt 0.500000 0.372490
vt 0.624025 0.376001
vt 0.375975 0.376001
vt 0.377810 0.377884
vt 0.622190 0.377884
vt 0.625000 0.375000
vt 0.375000 0.375000
vt 0.622190 0.372116
vt 0.499036 0.251454
vt 0.499044 0.251431
vt 0.466167 0.251052
vt 0.375096 0.250001
vt 0.375693 0.250008
vt 0.375964 0.250011
vt 0.625000 0.499313
vt 0.625000 0.499552
vt 0.624044 0.499989
vt 0.000000 0.000000
vt 1.000000 0.000000
vt 1.000000 1.000000
vt 0.000000 1.000000
vt 0.000000 0.000000
vt 1.000000 0.000000
vt 1.000000 1.000000
vt 0.000000 1.000000
vt 0.000000 0.000000
vt 1.000000 0.000000
vt 1.000000 1.000000
vt 0.000000 1.000000
vt 0.000000 0.000000
vt 1.000000 0.000000
vt 1.000000 1.000000
vt 0.000000 1.000000
vt 0.000000 0.000000
vt 1.000000 0.000000
vt 1.000000 1.000000
vt 0.000000 1.000000
vt 0.000000 0.000000
vt 1.000000 0.000000
vt 1.000000 1.000000
vt 0.000000 1.000000
vt 0.000000 0.000000
vt 1.000000 0.000000
vt 1.000000 1.000000
vt 0.000000 1.000000
vt 0.000000 0.000000
vt 1.000000 0.000000
vt 1.000000 1.000000
vt 0.000000 1.000000
vt 0.000000 0.000000
vt 1.000000 0.000000
vt 1.000000 1.000000
vt 0.000000 1.000000
vt 0.000000 0.000000
vt 1.000000 0.000000
vt 1.000000 1.000000
vt 0.000000 1.000000
vt 0.000000 0.000000
vt 1.000000 0.000000
vt 1.000000 1.000000
vt 0.000000 1.000000
vt 0.000000 0.000000
vt 1.000000 0.000000
vt 1.000000 1.000000
vt 0.000000 1.000000
vn -0.000068 0.890649 0.454691
vn -0.000707 0.890797 0.454401
vn 0.000406 0.837170 0.546942
vn 0.000883 0.838446 0.544984
vn -0.000060 0.891477 0.453065
vn 0.063517 0.997981 -0.000000
vn 0.063517 0.997981 -0.000000
vn 0.079060 0.996862 0.003972
vn 0.331463 0.943119 0.025660
vn 0.957288 0.289136 0.000000
vn 0.999914 0.013093 0.000000
vn 0.999952 0.009754 0.000056
vn 0.957286 0.289136 0.001674
vn 0.000000 1.000000 0.000000
vn 0.000000 1.000000 0.000000
vn 0.000000 1.000000 0.000000
vn 0.000000 1.000000 0.000000
vn 0.000000 1.000000 -0.000000
vn 0.000000 1.000000 -0.000000
vn 0.416390 0.908597 -0.032733
vn 0.076484 0.997063 -0.003910
vn 0.957287 0.289136 -0.001674
vn 0.999952 0.009755 -0.000056
vn 0.003525 0.000000 0.999994
vn 0.298507 0.000000 0.954408
vn 0.298507 0.000000 0.954408
vn 0.000118 0.000000 1.000000
vn -0.000902 0.812976 0.582296
vn 0.000000 0.773650 0.633614
vn -0.001007 0.820294 0.571941
vn 0.474115 -0.879993 -0.028743
vn 0.732182 0.680786 -0.020993
vn 0.706182 0.707747 0.020038
vn 0.706182 0.707747 0.020038
vn 0.490491 -0.870960 0.029113
vn 0.000118 0.000000 -1.000000
vn 0.298585 0.000000 -0.954383
vn 0.298585 0.000000 -0.954383
vn 0.003526 0.000000 -0.999994
vn -0.999952 0.009800 -0.000056
vn -0.956911 0.290376 -0.001666
vn -0.956912 0.290377 0.000000
vn -0.999913 0.013154 0.000000
vn -0.079394 0.996835 -0.003983
vn -0.333035 0.942560 -0.025867
vn -0.063790 0.997963 -0.000000
vn -0.063790 0.997963 -0.000000
vn 0.000000 1.000000 0.000000
vn 0.000000 1.000000 0.000000
vn 0.000000 1.000000 0.000000
vn 0.000000 1.000000 0.000000
vn 0.000000 1.000000 0.000000
vn 0.000000 1.000000 0.000000
vn -0.956911 0.290376 0.001666
vn -0.999952 0.009800 0.000056
vn -0.419144 0.907317 0.033070
vn -0.076810 0.997038 0.003914
vn -0.705999 0.707922 -0.020312
vn -0.705999 0.707922 -0.020312
vn -0.487329 -0.872736 -0.029044
vn -0.000118 0.000000 1.000000
vn -0.298601 0.000000 0.954378
vn -0.298601 0.000000 0.954378
vn -0.003521 0.000000 0.999994
vn -0.003522 0.000000 -0.999994
vn -0.298680 0.000000 -0.954353
vn -0.298680 0.000000 -0.954353
vn -0.000118 0.000000 -1.000000
vn 0.000901 0.812987 -0.582281
vn 0.000000 0.773782 -0.633451
vn 0.001006 0.820298 -0.571935
vn -0.470915 -0.881712 0.028667
vn -0.732078 0.680898 0.020989
vn -0.000883 0.838441 -0.544991
vn 0.000060 0.891480 -0.453060
vn 0.000067 0.890653 -0.454684
vn 0.000707 0.890801 -0.454394
vn -0.000406 0.837172 -0.546939
vn 0.000627 0.813513 0.581546
vn 0.000000 0.773826 0.633399
vn 0.000000 0.773826 0.633399
vn 0.001268 0.813090 0.582137
vn 0.000369 0.813236 0.581934
vn 0.000484 0.815499 0.578759
vn -0.000627 0.813514 -0.581544
vn -0.000017 0.773725 -0.633522
vn -0.000017 0.773725 -0.633522
vn -0.001267 0.813091 -0.582135
vn -0.000369 0.813241 -0.581927
vn -0.000484 0.815503 -0.578753
vn -0.001114 0.728863 -0.684659
vn 0.000000 0.901742 -0.432275
vn -0.001334 0.899950 -0.435991
vn 0.001324 0.851124 -0.524963
vn -0.002483 0.827998 -0.560726
vn 0.001334 0.899949 -0.435992
vn -0.518959 0.854795 -0.002775
vn -0.402835 -0.914873 -0.027064
vn -0.512836 0.858483 -0.002614
vn -0.404422 -0.914170 0.027119
vn -0.517447 0.855711 0.002773
vn -0.518798 0.854892 0.002810
vn 0.001334 0.899950 0.435991
vn -0.002483 0.827998 0.560725
vn -0.001114 0.728862 0.684659
vn -0.000000 0.901742 0.432274
vn 0.001324 0.851124 0.524963
vn -0.001334 0.899950 0.435992
vn 0.001224 0.838688 -0.544612
vn 0.000872 0.853554 -0.521003
vn -0.001224 0.838698 0.544596
vn -0.000872 0.853563 0.520989
vn 0.518943 0.854804 -0.002808
vn 0.396998 -0.917424 -0.026954
vn 0.517579 0.855631 -0.002771
vn 0.518725 0.854937 0.002772
vn 0.395326 -0.918147 0.026895
vn 0.512610 0.858617 0.002610
vn 0.003367 0.891416 -0.453173
vn 0.003367 0.891416 0.453173
vn -0.000067 0.890653 -0.454684
vn 0.005814 0.999983 -0.000000
vn 0.005814 0.999983 -0.000000
vn 0.000412 1.000000 0.000000
vn 0.000000 1.000000 0.000000
vn 0.005814 0.999983 -0.000000
vn 0.005814 0.999983 0.000000
vn -0.000000 1.000000 -0.000000
vn -0.000410 1.000000 -0.000000
vn 0.005814 0.999983 0.000000
vn 0.005814 0.999983 0.000000
vn -0.005814 0.999983 -0.000000
vn -0.005814 0.999983 -0.000000
vn -0.005814 0.999983 -0.000000
vn -0.001794 0.570353 -0.821398
vn -0.012771 0.469148 -0.883027
vn -0.264595 -0.964069 -0.023690
vn 0.007616 0.650513 -0.759457
vn -0.012771 0.469148 0.883027
vn -0.001794 0.570352 0.821398
vn 0.007616 0.650511 0.759459
vn 0.267027 -0.963396 0.023756
vn 0.000066 0.890656 0.454678
vn -0.409020 0.912526 0.000050
vn -0.409020 0.912526 0.000050
vn 0.408857 0.912599 0.000055
vn 0.408857 0.912599 0.000055
vn -0.003367 0.891415 -0.453176
vn -0.003367 0.891415 0.453176
vn -0.408857 0.912599 -0.000050
vn -0.408857 0.912599 -0.000050
vn 0.408860 0.912597 -0.000054
vn 0.408860 0.912597 -0.000054
vn 0.268154 -0.963082 -0.023789
vn -0.265594 -0.963793 0.023716
vn -0.005814 0.999983 0.000000
vn -0.005814 0.999983 0.000000
vn -0.005814 0.999983 0.000000
vn -0.000354 0.933538 -0.358477
vn 0.000361 0.933568 0.358400
vn -0.245687 0.912914 0.325922
vn -0.245687 0.912914 0.325922
vn 0.245377 0.912981 -0.325970
vn 0.245377 0.912981 -0.325970
vn 0.000000 0.000000 1.000000
vn 0.000000 0.000000 1.000000
vn 0.000000 0.000000 1.000000
vn 0.000000 0.000000 -1.000000
vn 0.000000 0.000000 -1.000000
vn 0.000000 0.000000 -1.000000
vn 0.000000 0.000000 1.000000
vn 0.000000 0.000000 -1.000000
vn 1.000000 0.000000 0.000000
vn 1.000000 0.000000 0.000000
vn 1.000000 0.000000 0.000000
vn 0.000000 0.000000 1.000000
vn 0.000000 0.000000 1.000000
vn 0.000000 0.000000 -1.000000
vn 0.000000 0.000000 -1.000000
vn -1.000000 0.000000 0.000000
vn -1.000000 0.000000 0.000000
vn -1.000000 0.000000 0.000000
s 1
g pCube194
usemtl lambert7SG
f 8/71/1 67/58/2 66/105/3 61/101/4 60/100/5
s 2
f 23/6/6 22/13/7 25/15/8 24/2/9
s 3
f 22/14/10 21/4/11 26/3/12 25/41/13
s 4
f 20/5/14 23/6/15 5/97/16
f 23/6/15 2/82/17 5/97/16
f 2/82/17 23/6/15 7/85/18
f 23/6/15 24/2/19 7/85/18
s 2
f 20/5/20 19/11/21 22/13/7 23/6/6
s 3
f 19/12/22 18/7/23 21/4/11 22/14/10
s 5
f 18/8/24 19/11/25 28/16/26 17/9/27
s 1
f 17/9/28 28/16/29 16/80/30
s 2
f 16/80/31 28/16/32 19/11/21 20/5/20
f 24/40/9 25/41/8 29/45/33 73/42/34 77/43/35
s 7
f 27/10/36 29/45/37 25/41/38 26/3/39
s 8
f 32/19/40 31/33/41 35/28/42 34/20/43
s 9
f 31/33/44 30/18/45 36/21/46 35/27/47
s 10
f 2/82/48 36/21/49 4/77/50
f 36/21/49 30/18/51 4/77/50
f 36/21/49 2/82/48 6/98/52
f 41/23/53 36/21/49 6/98/52
s 8
f 34/20/43 35/28/42 40/30/54 39/22/55
s 9
f 35/27/47 36/21/46 41/23/56 40/29/57
f 30/32/45 31/33/44 42/37/58 64/34/59 68/35/60
s 5
f 33/24/61 42/37/62 31/33/63 32/19/64
s 7
f 39/25/65 40/29/66 43/31/67 38/26/68
s 13
f 38/26/69 43/31/70 37/84/71
s 9
f 37/84/72 43/31/73 40/29/57 41/23/56
s 13
f 52/51/74 56/75/75 15/52/76 76/66/77 75/108/78
s 1
f 65/36/79 64/34/80 42/37/81 33/24/82
f 66/38/3 65/36/79 33/24/82 1/17/83 62/64/84 61/39/4
s 13
f 74/44/85 73/42/86 29/45/87 27/10/88
f 75/46/78 74/47/85 27/1/88 3/48/89 53/49/90 52/50/74
s 17
f 44/78/91 45/53/92 69/54/93 70/81/94
f 45/92/92 44/55/91 47/56/95 46/67/96
s 9
f 46/67/97 47/79/98 68/57/60 67/58/99
f 48/83/100 49/94/101 57/70/102 37/84/72
s 19
f 49/94/103 48/83/104 51/59/105 50/74/106
f 50/60/106 51/86/105 72/87/107 71/93/108
s 13
f 54/69/109 53/61/90 37/62/71 57/70/110
s 1
f 58/63/111 62/64/84 16/80/30 63/89/112
s 2
f 63/89/113 16/80/31 70/81/114 69/91/115
f 71/93/116 72/87/117 77/65/35 76/66/118
s 17
f 45/92/92 46/67/96 9/68/119
s 19
f 12/95/120 49/94/103 50/74/106
s 13
f 54/69/109 57/70/110 13/73/121
s 20
f 8/71/122 60/100/123 59/72/124 45/92/125 9/68/126
s 21
f 12/95/127 50/74/128 55/76/129 54/69/130 13/73/131
f 50/74/128 14/96/132 15/52/133 56/75/134 55/76/129
s 17
f 2/82/135 4/77/136 47/79/95 44/78/91
s 9
f 4/77/137 30/18/45 68/57/60 47/79/98
s 1
f 1/17/83 17/9/28 16/80/30 62/64/84
s 17
f 5/97/138 2/82/135 44/78/91 70/81/94
s 19
f 6/98/139 2/82/140 51/86/105 48/83/104
s 13
f 3/48/89 38/26/69 37/84/71 53/49/90
s 19
f 2/82/140 7/85/141 72/87/107 51/86/105
s 2
f 7/85/142 24/2/9 77/65/35 72/87/117
s 1
f 58/88/111 63/89/112 10/90/143
s 9
f 46/67/97 67/58/99 8/71/144 9/68/145
s 2
f 10/90/146 63/89/113 69/91/115 11/99/147
s 17
f 45/92/92 11/99/148 69/91/93
s 19
f 50/74/106 71/93/108 14/96/149
s 9
f 49/94/101 12/95/150 13/73/151 57/70/102
s 2
f 14/96/152 71/93/116 76/66/118 15/52/153
f 16/80/31 20/5/20 5/97/154 70/81/114
s 9
f 37/84/72 41/23/56 6/98/155 48/83/100
s 20
f 59/72/124 58/88/156 10/90/157 11/99/158 45/92/125
s 13
f 52/51/74 53/61/90 54/69/109 55/76/159 56/75/75
s 1
f 58/88/111 59/72/160 60/100/5 61/101/4 62/102/84
f 64/103/161 65/104/79 66/105/3 67/58/2 68/57/162
s 13
f 73/106/163 74/107/85 75/108/78 76/66/77 77/65/164
s 5
f 17/109/27 1/110/165 78/111/166 79/112/167
s 7
f 3/113/168 27/114/36 81/115/169 80/116/170
s 5
f 18/117/24 17/118/27 79/119/167 82/120/171
s 7
f 27/121/36 26/122/39 83/123/172 81/124/169
s 3
f 21/125/11 18/126/23 82/127/173 84/128/174
f 26/129/12 21/130/11 84/131/174 83/132/175
s 5
f 1/133/165 33/134/61 85/135/176 78/136/166
f 33/137/61 32/138/64 86/139/177 85/140/176
s 7
f 38/141/68 3/142/168 80/143/170 87/144/178
f 39/145/65 38/146/68 87/147/178 88/148/179
s 8
f 32/149/40 34/150/43 89/151/180 86/152/181
f 34/153/43 39/154/55 88/155/182 89/156/180
