# This file uses centimeters as units for non-parametric coordinates.

mtllib VentClose.mtl
g default
v -0.089237 -2.677987 2.677987
v 0.089238 -2.677987 2.677987
v -0.089237 -2.424258 2.677987
v 0.089238 -2.424258 2.677987
v -0.089237 -1.715622 2.677987
v 0.089238 -1.715622 2.677987
v -0.089237 -0.980570 2.677987
v 0.089238 -0.980570 2.677987
v -0.089237 -0.320305 2.677987
v 0.089238 -0.320305 2.677987
v -0.089237 0.320305 2.677987
v 0.089238 0.320305 2.677987
v -0.089237 0.980570 2.677987
v 0.089238 0.980570 2.677987
v -0.089237 1.715622 2.677987
v 0.089238 1.715622 2.677987
v -0.089237 2.424259 2.677987
v 0.089238 2.424259 2.677987
v -0.089237 2.677988 2.677987
v 0.089238 2.677988 2.677987
v -0.089237 2.677988 2.433290
v 0.089238 2.677988 2.433290
v -0.089237 2.677988 -2.433290
v 0.089238 2.677988 -2.433290
v -0.089237 2.677988 -2.677987
v 0.089238 2.677988 -2.677987
v -0.089237 2.424259 -2.677987
v 0.089238 2.424259 -2.677987
v -0.089237 1.715622 -2.677987
v 0.089238 1.715622 -2.677987
v -0.089237 0.980570 -2.677987
v 0.089238 0.980570 -2.677987
v -0.089237 0.320305 -2.677987
v 0.089238 0.320305 -2.677987
v -0.089237 -0.320304 -2.677987
v 0.089238 -0.320304 -2.677987
v -0.089237 -0.980570 -2.677987
v 0.089238 -0.980570 -2.677987
v -0.089237 -1.715621 -2.677987
v 0.089238 -1.715621 -2.677987
v -0.089237 -2.424258 -2.677987
v 0.089238 -2.424258 -2.677987
v -0.089237 -2.677987 -2.677987
v 0.089238 -2.677987 -2.677987
v -0.089237 -2.677987 -2.433290
v 0.089238 -2.677987 -2.433290
v -0.089237 -2.677987 2.433290
v 0.089238 -2.677987 2.433290
v 0.089238 -2.424258 -2.433290
v 0.089238 -2.424258 2.433290
v 0.090123 -1.715622 -2.433290
v 0.090123 -1.715622 2.433290
v 0.090124 -0.980570 -2.433290
v 0.090124 -0.980570 2.433290
v 0.090123 -0.320305 -2.433290
v 0.090123 -0.320305 2.433290
v 0.090124 0.320305 -2.433290
v 0.090124 0.320305 2.433290
v 0.090124 0.980570 -2.433290
v 0.090124 0.980570 2.433290
v 0.090123 1.715622 -2.433290
v 0.090123 1.715622 2.433290
v 0.090124 2.424259 -2.433290
v 0.090124 2.424259 2.433290
v 0.369448 -2.330206 -2.433290
v 0.369448 -2.330206 2.433290
v 0.369448 -1.621820 -2.433290
v 0.369448 -1.621820 2.433290
v 0.369448 -0.908079 -2.433290
v 0.369448 -0.908079 2.433290
v 0.369448 -0.217174 -2.433290
v 0.369448 -0.217174 2.433290
v 0.369448 0.423144 -2.433290
v 0.369448 0.423144 2.433290
v 0.369448 1.072300 -2.433290
v 0.369448 1.072300 2.433290
v 0.369448 1.816981 -2.433290
v 0.369448 1.816981 2.433290
vt 0.375000 0.000000
vt 0.625000 0.000000
vt 0.375000 0.027778
vt 0.625000 0.027778
vt 0.375000 0.055556
vt 0.625000 0.055556
vt 0.375000 0.083333
vt 0.625000 0.083333
vt 0.375000 0.111111
vt 0.625000 0.111111
vt 0.375000 0.138889
vt 0.625000 0.138889
vt 0.375000 0.166667
vt 0.625000 0.166667
vt 0.375000 0.194444
vt 0.625000 0.194444
vt 0.375000 0.222222
vt 0.625000 0.222222
vt 0.375000 0.250000
vt 0.625000 0.250000
vt 0.375000 0.333333
vt 0.625000 0.333333
vt 0.375000 0.416667
vt 0.625000 0.416667
vt 0.375000 0.500000
vt 0.625000 0.500000
vt 0.375000 0.527778
vt 0.625000 0.527778
vt 0.375000 0.555556
vt 0.625000 0.555556
vt 0.375000 0.583333
vt 0.625000 0.583333
vt 0.375000 0.611111
vt 0.625000 0.611111
vt 0.375000 0.638889
vt 0.625000 0.638889
vt 0.375000 0.666667
vt 0.625000 0.666667
vt 0.375000 0.694445
vt 0.625000 0.694445
vt 0.375000 0.722222
vt 0.625000 0.722222
vt 0.375000 0.750000
vt 0.625000 0.750000
vt 0.375000 0.833333
vt 0.625000 0.833333
vt 0.375000 0.916667
vt 0.625000 0.916667
vt 0.375000 1.000000
vt 0.625000 1.000000
vt 0.875000 0.000000
vt 0.791667 0.000000
vt 0.708333 0.000000
vt 0.875000 0.027778
vt 0.791667 0.027778
vt 0.708333 0.027778
vt 0.875000 0.055556
vt 0.791667 0.055556
vt 0.708333 0.055556
vt 0.875000 0.083333
vt 0.791667 0.083333
vt 0.708333 0.083333
vt 0.875000 0.111111
vt 0.791667 0.111111
vt 0.708333 0.111111
vt 0.875000 0.138889
vt 0.791667 0.138889
vt 0.708333 0.138889
vt 0.875000 0.166667
vt 0.791667 0.166667
vt 0.708333 0.166667
vt 0.875000 0.194444
vt 0.791667 0.194444
vt 0.708333 0.194444
vt 0.875000 0.222222
vt 0.791667 0.222222
vt 0.708333 0.222222
vt 0.875000 0.250000
vt 0.791667 0.250000
vt 0.708333 0.250000
vt 0.708333 0.027778
vt 0.791667 0.027778
vt 0.708333 0.055556
vt 0.791667 0.055556
vt 0.708333 0.083333
vt 0.791667 0.083333
vt 0.708333 0.111111
vt 0.791667 0.111111
vt 0.708333 0.138889
vt 0.791667 0.138889
vt 0.708333 0.166667
vt 0.791667 0.166667
vt 0.708333 0.194444
vt 0.791667 0.194444
vn 0.000000 0.000000 1.000000
vn 0.000000 0.000000 1.000000
vn 0.000000 0.000000 1.000000
vn 0.000000 0.000000 1.000000
vn 0.000000 0.000000 1.000000
vn 0.000000 0.000000 1.000000
vn 0.000000 0.000000 1.000000
vn 0.000000 0.000000 1.000000
vn 0.000000 0.000000 1.000000
vn 0.000000 0.000000 1.000000
vn 0.000000 0.000000 1.000000
vn 0.000000 0.000000 1.000000
vn 0.000000 0.000000 1.000000
vn 0.000000 0.000000 1.000000
vn 0.000000 0.000000 1.000000
vn 0.000000 0.000000 1.000000
vn 0.000000 0.000000 1.000000
vn 0.000000 0.000000 1.000000
vn 0.000000 0.000000 1.000000
vn 0.000000 0.000000 1.000000
vn 0.000000 1.000000 0.000000
vn 0.000000 1.000000 0.000000
vn 0.000000 1.000000 0.000000
vn 0.000000 1.000000 0.000000
vn 0.000000 1.000000 0.000000
vn 0.000000 1.000000 0.000000
vn 0.000000 1.000000 0.000000
vn 0.000000 1.000000 0.000000
vn 0.000000 0.000000 -1.000000
vn 0.000000 0.000000 -1.000000
vn 0.000000 0.000000 -1.000000
vn 0.000000 0.000000 -1.000000
vn 0.000000 0.000000 -1.000000
vn 0.000000 0.000000 -1.000000
vn 0.000000 0.000000 -1.000000
vn 0.000000 0.000000 -1.000000
vn 0.000000 0.000000 -1.000000
vn 0.000000 0.000000 -1.000000
vn 0.000000 0.000000 -1.000000
vn 0.000000 0.000000 -1.000000
vn 0.000000 0.000000 -1.000000
vn 0.000000 0.000000 -1.000000
vn 0.000000 0.000000 -1.000000
vn 0.000000 0.000000 -1.000000
vn 0.000000 0.000000 -1.000000
vn 0.000000 0.000000 -1.000000
vn 0.000000 0.000000 -1.000000
vn 0.000000 0.000000 -1.000000
vn 0.000000 -1.000000 0.000000
vn 0.000000 -1.000000 0.000000
vn 0.000000 -1.000000 0.000000
vn 0.000000 -1.000000 0.000000
vn 0.000000 -1.000000 0.000000
vn 0.000000 -1.000000 0.000000
vn 0.000000 -1.000000 0.000000
vn 0.000000 -1.000000 0.000000
vn 1.000000 0.000000 0.000000
vn 1.000000 0.000000 0.000000
vn 0.999999 -0.000460 -0.001333
vn 1.000000 -0.000074 -0.000213
vn 1.000000 0.000000 0.000000
vn 1.000000 -0.000074 0.000213
vn 1.000000 0.000000 0.000000
vn 0.999999 -0.000460 0.001333
vn 0.999996 -0.000307 -0.002732
vn 0.999996 -0.000307 -0.002732
vn 0.910384 0.413764 0.000000
vn 0.910384 0.413764 0.000000
vn 0.910384 0.413764 0.000000
vn 0.910384 0.413764 0.000000
vn 0.999996 -0.000307 0.002732
vn 0.999996 -0.000307 0.002732
vn 0.999994 0.000000 -0.003620
vn 0.999994 0.000000 -0.003620
vn 0.916798 0.399351 0.000000
vn 0.916798 0.399351 0.000000
vn 0.916798 0.399351 0.000000
vn 0.916798 0.399351 0.000000
vn 0.999993 0.000000 0.003620
vn 0.999993 0.000000 0.003620
vn 0.999993 -0.000000 -0.003620
vn 0.999993 0.000000 -0.003620
vn 0.903199 0.429222 0.000000
vn 0.903199 0.429222 0.000000
vn 0.903199 0.429222 0.000000
vn 0.903199 0.429222 0.000000
vn 0.999993 0.000000 0.003620
vn 0.999993 0.000000 0.003620
vn 0.999993 -0.000000 -0.003621
vn 0.999993 -0.000000 -0.003621
vn 0.887328 0.461139 0.000000
vn 0.887328 0.461139 0.000000
vn 0.887328 0.461139 0.000000
vn 0.887328 0.461139 0.000000
vn 0.999993 -0.000000 0.003621
vn 0.999993 -0.000000 0.003621
vn 0.999993 0.000000 -0.003621
vn 0.999993 0.000000 -0.003621
vn 0.894035 0.447998 0.000000
vn 0.894035 0.447998 0.000000
vn 0.894035 0.447998 0.000000
vn 0.894035 0.447998 0.000000
vn 0.999993 0.000000 0.003621
vn 0.999993 0.000000 0.003621
vn 0.999993 -0.000000 -0.003621
vn 0.999993 -0.000000 -0.003621
vn 0.917269 0.398269 0.000000
vn 0.917269 0.398269 0.000000
vn 0.917269 0.398269 0.000000
vn 0.917269 0.398269 0.000000
vn 0.999993 -0.000000 0.003621
vn 0.999993 -0.000000 0.003621
vn 0.999995 0.000460 -0.003145
vn 0.999995 0.003009 -0.000504
vn 0.908504 0.417876 0.000000
vn 0.908504 0.417876 0.000000
vn 0.908504 0.417876 0.000000
vn 0.908504 0.417876 0.000000
vn 0.999995 0.003009 0.000504
vn 0.999995 0.000460 0.003145
vn 0.999997 0.001747 -0.001812
vn 0.999994 0.003411 -0.000087
vn 0.999994 0.003411 0.000087
vn 0.999997 0.001747 0.001812
vn 0.000000 0.000000 -1.000000
vn 0.000000 0.000000 -1.000000
vn 0.000000 0.000000 -1.000000
vn 0.000000 0.000000 1.000000
vn 0.000000 0.000000 1.000000
vn 0.000000 0.000000 1.000000
vn -0.000001 0.000000 -1.000000
vn -0.000001 0.000000 -1.000000
vn -0.000001 0.000000 -1.000000
vn -0.000001 0.000000 1.000000
vn -0.000001 0.000000 1.000000
vn -0.000001 0.000000 1.000000
vn 0.000000 0.000000 -1.000000
vn 0.000000 0.000000 -1.000000
vn 0.000000 0.000000 -1.000000
vn 0.000000 0.000000 1.000000
vn 0.000000 0.000000 1.000000
vn 0.000000 0.000000 1.000000
vn -0.000000 0.000000 -1.000000
vn -0.000000 0.000000 -1.000000
vn -0.000000 0.000000 -1.000000
vn 0.000000 0.000000 1.000000
vn 0.000000 0.000000 1.000000
vn 0.000000 0.000000 1.000000
vn 0.000000 0.000000 -1.000000
vn 0.000000 0.000000 -1.000000
vn 0.000000 0.000000 -1.000000
vn 0.000000 0.000000 1.000000
vn 0.000000 0.000000 1.000000
vn 0.000000 0.000000 1.000000
vn -0.000001 0.000000 -1.000000
vn -0.000001 0.000000 -1.000000
vn -0.000001 0.000000 -1.000000
vn -0.000001 0.000000 1.000000
vn -0.000001 0.000000 1.000000
vn -0.000001 0.000000 1.000000
vn 0.000000 0.000000 -1.000000
vn 0.000000 0.000000 -1.000000
vn 0.000000 0.000000 -1.000000
vn 0.000000 0.000000 1.000000
vn 0.000000 0.000000 1.000000
vn 0.000000 0.000000 1.000000
s 1
g pCube239
usemtl initialShadingGroup
f 1/1/1 2/2/2 4/4/3 3/3/4
f 3/3/4 4/4/3 6/6/5 5/5/6
f 5/5/6 6/6/5 8/8/7 7/7/8
f 7/7/8 8/8/7 10/10/9 9/9/10
f 9/9/10 10/10/9 12/12/11 11/11/12
f 11/11/12 12/12/11 14/14/13 13/13/14
f 13/13/14 14/14/13 16/16/15 15/15/16
f 15/15/16 16/16/15 18/18/17 17/17/18
f 17/17/18 18/18/17 20/20/19 19/19/20
s 2
f 19/19/21 20/20/22 22/22/23 21/21/24
f 21/21/24 22/22/23 24/24/25 23/23/26
f 23/23/26 24/24/25 26/26/27 25/25/28
s 3
f 25/25/29 26/26/30 28/28/31 27/27/32
f 27/27/32 28/28/31 30/30/33 29/29/34
f 29/29/34 30/30/33 32/32/35 31/31/36
f 31/31/36 32/32/35 34/34/37 33/33/38
f 33/33/38 34/34/37 36/36/39 35/35/40
f 35/35/40 36/36/39 38/38/41 37/37/42
f 37/37/42 38/38/41 40/40/43 39/39/44
f 39/39/44 40/40/43 42/42/45 41/41/46
f 41/41/46 42/42/45 44/44/47 43/43/48
s 4
f 43/43/49 44/44/50 46/46/51 45/45/52
f 45/45/52 46/46/51 48/48/53 47/47/54
f 47/47/54 48/48/53 2/50/55 1/49/56
s 5
f 46/52/57 44/51/58 42/54/59 49/55/60
f 48/53/61 46/52/57 49/55/60 50/56/62
f 2/2/63 48/53/61 50/56/62 4/4/64
f 49/55/60 42/54/59 40/57/65 51/58/66
s off
f 66/56/67 65/55/68 51/58/69 52/59/70
s 5
f 4/4/64 50/56/62 52/59/71 6/6/72
f 51/58/66 40/57/65 38/60/73 53/61/74
s off
f 68/59/75 67/58/76 53/61/77 54/62/78
s 5
f 6/6/72 52/59/71 54/62/79 8/8/80
f 53/61/74 38/60/73 36/63/81 55/64/82
s off
f 70/62/83 69/61/84 55/64/85 56/65/86
s 5
f 8/8/80 54/62/79 56/65/87 10/10/88
f 55/64/82 36/63/81 34/66/89 57/67/90
s off
f 72/65/91 71/64/92 57/67/93 58/68/94
s 5
f 10/10/88 56/65/87 58/68/95 12/12/96
f 57/67/90 34/66/89 32/69/97 59/70/98
s off
f 74/68/99 73/67/100 59/70/101 60/71/102
s 5
f 12/12/96 58/68/95 60/71/103 14/14/104
f 59/70/98 32/69/97 30/72/105 61/73/106
s off
f 76/71/107 75/70/108 61/94/109 62/93/110
s 5
f 14/14/104 60/71/103 62/74/111 16/16/112
f 61/73/106 30/72/105 28/75/113 63/76/114
s off
f 78/93/115 77/94/116 63/76/117 64/77/118
s 5
f 16/16/112 62/74/111 64/77/119 18/18/120
f 63/76/114 28/75/113 26/78/121 24/79/122
f 64/77/119 63/76/114 24/79/122 22/80/123
f 18/18/120 64/77/119 22/80/123 20/20/124
s off
f 49/55/125 51/58/126 65/82/127
f 52/59/128 50/56/129 66/81/130
f 51/58/131 53/61/132 67/84/133
f 54/62/134 52/59/135 68/83/136
f 53/61/137 55/64/138 69/86/139
f 56/65/140 54/62/141 70/85/142
f 55/64/143 57/67/144 71/88/145
f 58/68/146 56/65/147 72/87/148
f 57/67/149 59/70/150 73/90/151
f 60/71/152 58/68/153 74/89/154
f 59/70/155 61/73/156 75/92/157
f 62/74/158 60/71/159 76/91/160
f 61/73/161 63/76/162 77/94/163
f 64/77/164 62/74/165 78/93/166
